<svg width="293" height="325" viewBox="0 0 293 325" fill="none" xmlns="http://www.w3.org/2000/svg">
<path d="M76.0261 103.135C77.8727 98.703 85.6273 97.3684 89.6198 96.4812C94.0233 95.5025 100.86 93.5241 102.337 95.8631C103.814 98.2021 116.159 164.811 115.174 165.919C114.189 167.027 90.6758 169.858 87.7213 168.012C84.7667 166.165 74.1796 107.567 76.0261 103.135Z" fill="#E1E1E1"/>
<path fill-rule="evenodd" clip-rule="evenodd" d="M91.115 83.9393C87.0005 83.3602 83.0644 81.6697 80.4111 78.2176C72.766 68.2711 87.6273 58.7743 94.3531 61.2524C101.079 63.7305 111.406 75.9858 108.878 79.7359C107.87 81.2314 104.354 82.8745 100.007 83.6788L112.941 94.6843L102.439 103.995L91.115 83.9393Z" fill="#FFB287"/>
<path fill-rule="evenodd" clip-rule="evenodd" d="M85.6413 59.7825C83.8184 60.6172 81.6038 62.3156 80.8165 63.1929C80.2561 61.5567 79.2742 60.0507 77.9643 58.8982C76.6915 57.7782 75.1787 57.2051 73.6626 56.5431C72.9638 56.238 72.2355 55.964 71.4792 55.9273C70.7088 55.8898 69.9502 56.0867 69.2897 56.4454C68.6137 56.8124 68.037 57.343 67.5801 57.9589C67.378 58.2313 67.2558 58.5425 67.0682 58.8217C66.876 59.1075 66.6166 59.0587 66.2964 59.0623C65.5247 59.0711 64.7195 59.4517 64.1082 59.8743C63.4223 60.3486 62.8624 61.0119 62.4522 61.7393C62.0529 62.4473 61.7859 63.2589 61.786 64.0965C61.786 64.4693 61.8286 64.8559 61.952 65.215C62.0026 65.3624 62.0518 65.4327 61.9793 65.5674C61.9123 65.692 61.797 65.7961 61.7253 65.9217C61.0316 67.1365 60.8631 68.6541 61.2736 70.0469C61.513 70.8594 62.2812 71.9828 63.3201 73.0842C64.3589 74.1855 68.001 76.2337 69.9128 76.4635C71.6192 76.6687 73.4367 76.1911 74.894 75.3954C74.9047 77.0266 75.3875 78.6489 76.027 80.1672C76.7217 81.8164 77.624 83.37 78.7162 84.7997C79.7539 86.158 80.9413 87.5147 82.3472 88.498C83.662 89.4174 85.1095 89.8448 86.6469 89.5668C87.3512 89.4396 88.0288 89.2122 88.6933 88.9644C89.3482 88.7201 89.9999 88.4694 90.6047 88.1219C91.7492 87.4642 92.8334 86.4418 92.8958 85.0112C92.9183 84.4956 92.9044 83.885 92.7997 83.3722C92.7621 83.1878 92.7338 83.0704 92.5426 83.0271C92.3135 82.9752 92.0507 83.0129 91.8199 83.018C90.5043 83.0472 89.2858 82.6094 88.273 81.7032C87.2454 80.7837 86.3479 79.2168 86.9478 77.886C87.6883 76.2433 89.6048 75.6761 91.2218 75.2976C90.2326 73.2458 89.8775 70.9234 90.7063 68.8451C91.6233 66.5458 93.4357 64.7649 94.5032 62.5432C94.7814 61.9642 95.0455 61.3529 95.0356 60.6845C95.0315 60.4052 95.0092 60.0578 94.8778 59.8C94.7053 59.4614 94.3232 59.388 93.9958 59.295C92.2598 58.8018 87.4642 58.9479 85.6413 59.7825Z" fill="#191847"/>
<path fill-rule="evenodd" clip-rule="evenodd" d="M122.878 150.515L196.831 191.701L255.75 228.599L261.827 225.091L147.528 136.284L122.878 150.515Z" fill="white"/>
<path fill-rule="evenodd" clip-rule="evenodd" d="M250.617 228.289C250.924 230.129 251.294 231.424 251.727 232.175C252.255 233.088 253.176 234.333 254.492 235.909C255.551 235.297 265.072 229.8 283.055 219.418C282.381 216.536 281.187 215.458 279.475 216.186C277.763 216.914 276.333 217.504 275.184 217.957L258.491 219.703C258.17 219.737 257.936 220.025 257.97 220.346C257.971 220.351 257.971 220.357 257.972 220.362L258.314 222.925C257.232 224.47 256.229 225.51 255.303 226.045C254.551 226.479 253.337 226.775 251.661 226.932L251.661 226.932C251.018 226.993 250.546 227.563 250.606 228.206C250.609 228.234 250.613 228.262 250.617 228.289Z" fill="#6366F1"/>
<path d="M282.94 218.82C282.565 218.59 263.453 229.523 253.944 235.018C253.842 235.525 254.32 236.006 254.725 236.375C255.13 236.745 283.231 220.702 283.5 220.085C283.769 219.468 283.41 219.107 282.94 218.82Z" fill="#4D4FB8"/>
<path fill-rule="evenodd" clip-rule="evenodd" d="M242.997 224.606L252.669 214.295C238.674 201.911 222.629 188.653 204.535 174.523C186.442 160.392 168.17 147.224 149.718 135.019L116.62 154.128C138.65 170.323 160.108 184.207 180.994 195.779C201.879 207.351 222.547 216.96 242.997 224.606Z" fill="url(#paint0_radial_592_4)"/>
<path fill-rule="evenodd" clip-rule="evenodd" d="M120.405 151.943C129.617 176.101 139.074 208.301 138.931 209.546C138.836 210.376 126.322 224.533 101.39 252.016L105.796 256.617C139.247 230.285 156.116 215.099 156.403 211.061C156.834 205.003 151.674 162.09 145.161 137.65L120.405 151.943Z" fill="url(#paint1_linear_592_4)"/>
<path fill-rule="evenodd" clip-rule="evenodd" d="M109.472 241.174L116.767 248.47C145.441 235.106 161.165 223.722 163.939 214.316C166.713 204.911 161.095 178.986 147.085 136.54L115.524 154.761C128.455 188.677 135.002 206.456 135.165 208.099C135.328 209.742 126.763 220.767 109.472 241.174Z" fill="url(#paint2_radial_592_4)"/>
<path fill-rule="evenodd" clip-rule="evenodd" d="M101.6 248.919C99.8413 249.54 98.63 250.13 97.9658 250.687C97.158 251.365 96.0922 252.489 94.7682 254.058C95.5546 254.995 102.621 263.417 115.969 279.324C118.69 278.159 119.544 276.797 118.53 275.237C117.516 273.677 116.686 272.371 116.041 271.318L111.422 255.182C111.333 254.872 111.01 254.692 110.699 254.781C110.694 254.782 110.689 254.784 110.683 254.786L108.219 255.567C106.509 254.77 105.311 253.963 104.624 253.144C104.065 252.479 103.563 251.335 103.117 249.712L103.117 249.712C102.946 249.089 102.302 248.723 101.679 248.894C101.652 248.901 101.626 248.91 101.6 248.919Z" fill="#6366F1"/>
<path fill-rule="evenodd" clip-rule="evenodd" d="M161.671 99.6795L171.377 87.0063C170.162 79.379 170.795 74.9936 173.275 73.8503C174.801 72.1118 175.263 82.222 178.571 79.8703C181.88 77.5185 187.851 67.002 189.972 67.669C193.11 68.6558 193.775 75.6369 192.731 79.715C190.781 87.3368 187.954 90.8947 179.974 97.4378C175.802 100.859 171.831 105.782 168.06 112.207L161.671 99.6795Z" fill="url(#paint3_linear_592_4)"/>
<mask id="mask0_592_4" style="mask-type:alpha" maskUnits="userSpaceOnUse" x="161" y="67" width="33" height="46">
<path fill-rule="evenodd" clip-rule="evenodd" d="M161.671 99.6795L171.377 87.0063C170.162 79.379 170.795 74.9936 173.275 73.8502C174.801 72.1117 175.263 82.222 178.571 79.8702C181.88 77.5185 187.851 67.0019 189.972 67.669C193.11 68.6558 193.775 75.6369 192.731 79.7149C190.781 87.3367 187.954 90.8947 179.974 97.4378C175.802 100.859 171.831 105.782 168.06 112.207L161.671 99.6795Z" fill="url(#paint4_linear_592_4)"/>
</mask>
<g mask="url(#mask0_592_4)">
<path d="M170.696 84.8048C170.29 85.0658 170.648 87.5949 170.877 88.8268C171.276 89.0805 175.914 97.559 179.501 98.5011C183.088 99.4431 185.588 95.6386 185.914 94.8777C186.24 94.1168 176.348 85.5658 174.392 84.4787C172.435 83.3917 171.203 84.4786 170.696 84.8048Z" fill="#E1E1E1"/>
</g>
<path d="M140.783 87.8207L121.31 114.917L130.756 117.326L145.91 92.2796C152.335 85.7624 154.94 82.2046 153.724 81.6061C151.901 80.7083 150.566 83.119 149.238 82.7122C147.909 82.3054 147.697 78.3238 147.657 74.5367C147.617 70.7496 146.039 71.9923 145.292 72.9717C143.33 77.0127 141.827 81.9623 140.783 87.8207Z" fill="#E1E1E1"/>
<mask id="mask1_592_4" style="mask-type:alpha" maskUnits="userSpaceOnUse" x="121" y="71" width="34" height="47">
<path d="M140.783 87.8206L121.31 114.917L130.756 117.325L145.91 92.2796C152.335 85.7624 154.94 82.2045 153.724 81.606C151.901 80.7083 150.566 83.1189 149.238 82.7121C147.909 82.3053 147.697 78.3237 147.657 74.5366C147.617 70.7495 146.039 71.9922 145.292 72.9716C143.33 77.0126 141.827 81.9623 140.783 87.8206Z" fill="#E1E1E1"/>
</mask>
<g mask="url(#mask1_592_4)">
<path d="M149.401 89.8391C149.453 89.449 143.639 86.9904 140.725 85.8098C140.384 85.4524 139.116 88.5557 139.003 89.4006C138.889 90.2455 145.811 92.4552 147.289 92.7477C148.768 93.0402 149.336 90.3266 149.401 89.8391Z" fill="#B9B9B9"/>
</g>
<path fill-rule="evenodd" clip-rule="evenodd" d="M120.508 106.958C126.627 103.338 134.087 97.2973 139.637 86.6787L147.507 92.3647C144.926 101.85 139.274 111.683 131.725 115.764C125.775 118.98 118.694 113.625 120.508 106.958Z" fill="#E1E1E1"/>
<path fill-rule="evenodd" clip-rule="evenodd" d="M135.902 114.475C143.38 112.331 153.231 104.081 165.456 89.7229C173.83 95.4148 178.844 100.025 180.497 103.553C171.279 118.068 161.741 127.673 152.539 133.257C156.028 138.616 158.393 144.267 158.907 150.38C159.966 162.949 127.46 169.51 119.348 176.596C102.87 161.291 109.585 147.329 102.718 135.414C95.1971 122.365 94.079 96.2431 95.6198 95.3535L109.672 87.2408C116.198 96.7541 126.438 105.479 135.902 114.475Z" fill="url(#paint5_linear_592_4)"/>
<path d="M181 106.186C181 104.986 168.667 94.6862 162.5 89.6862C162.5 88.1862 164 82.6862 166 82.6862C168 82.6862 186.5 99.6862 187 100.186C187.5 100.686 181 107.686 181 106.186Z" fill="url(#paint6_linear_592_4)"/>
<path d="M147.829 96.4647C147.717 95.8678 140.332 91.9488 136.653 90.0639C136.513 89.3177 136.781 86.4353 137.823 86.2399C138.865 86.0446 150.088 92.6942 150.395 92.894C150.702 93.0939 147.969 97.2109 147.829 96.4647Z" fill="#E1E1E1"/>
<rect x="89.7056" y="168.802" width="10.2806" height="4.27451" rx="2" transform="rotate(-5.51925 89.7056 168.802)" fill="#E1E1E1"/>
<path d="M76.2242 98.9384C78.0301 98.2677 79.6471 100.287 78.598 101.903L72.3219 111.567C71.9737 112.104 71.39 112.441 70.7515 112.475L69.4964 112.542C68.3935 112.602 67.4514 111.755 67.3923 110.652L67.0281 103.853C66.9813 102.979 67.5083 102.176 68.3288 101.871L76.2242 98.9384Z" fill="#E1E1E1"/>
<path d="M114.829 143.58C120.312 149.063 139.473 139.198 143.802 136.872C138.957 141.794 116.191 153.07 112.987 149.689C109.503 146.011 103.989 120.353 104.57 122.869C105.151 125.386 108.78 137.531 114.829 143.58Z" fill="#E1E1E1"/>
<path d="M142.203 163.203C142.637 162.85 143.034 162.542 143.372 162.291C143.227 162.489 142.815 162.803 142.203 163.203C139.854 165.114 136.428 168.341 135.507 170.89C134.144 174.665 125.44 180.328 125.021 179.908C124.602 179.489 121.561 173.931 122.819 173.407C123.919 172.948 137.933 165.993 142.203 163.203Z" fill="#E1E1E1"/>
<path d="M154.085 158.394C153.871 159.609 158.541 175.063 160.923 183.906C161.321 185.39 168.604 188.283 167.532 187.836C166.461 187.39 154.353 156.876 154.085 158.394Z" fill="#E1E1E1"/>
<path d="M64.231 118.71C65.598 115.429 71.3387 114.441 74.2943 113.784C77.5542 113.06 82.7314 112.969 83.825 114.7C84.9186 116.432 93.941 164.369 93.2119 165.189C92.4828 166.009 75.0761 168.105 72.8888 166.738C70.7016 165.371 62.864 121.991 64.231 118.71Z" fill="#E1E1E1"/>
<path d="M70.5748 103.315C72.4214 98.8832 80.176 97.5486 84.1685 96.6614C88.572 95.6827 95.4082 93.7042 96.8855 96.0433C98.3628 98.3823 110.707 164.991 109.723 166.099C108.738 167.207 85.2245 170.039 82.2699 168.192C79.3154 166.345 68.7282 107.747 70.5748 103.315Z" fill="#F5F5F5"/>
<mask id="mask2_592_4" style="mask-type:alpha" maskUnits="userSpaceOnUse" x="64" y="113" width="30" height="55">
<path d="M64.231 118.71C65.598 115.429 71.3387 114.441 74.2943 113.784C77.5542 113.06 82.7314 112.969 83.825 114.7C84.9186 116.432 93.941 164.369 93.2119 165.189C92.4828 166.009 75.0761 168.105 72.8888 166.738C70.7016 165.371 62.864 121.991 64.231 118.71Z" fill="white"/>
</mask>
<g mask="url(#mask2_592_4)">
<path d="M70.1516 133.356C70.1055 133.126 67.0173 115.612 66.3259 115.105" stroke="#6366F1" stroke-width="3"/>
</g>
<path d="M86.554 161.419C85.4785 161.01 81.1125 137.178 79.064 125.314C78.6798 113.727 93.5318 113.471 95.5163 121.921C95.794 123.104 103.71 158.987 103.518 159.883C103.326 160.779 87.8983 161.932 86.554 161.419Z" fill="white"/>
<path d="M84.5382 158.589C83.2712 158.107 78.1277 130.032 75.7144 116.054C75.2618 102.404 92.7586 102.102 95.0965 112.057C95.4237 113.45 104.75 155.724 104.524 156.78C104.297 157.835 86.1219 159.193 84.5382 158.589Z" fill="url(#paint7_linear_592_4)"/>
<path d="M84.8813 160.256C84.0203 159.461 84.081 158.545 84.219 158.186C85.7092 156.116 103.84 154.792 104.585 155.454C105.33 156.116 104.75 157.275 104.585 158.186C104.419 159.097 85.9576 161.249 84.8813 160.256Z" fill="#E1E1E1"/>
<path d="M137.099 127.746C141.923 133.466 145.081 134.893 146.54 134.835C142.596 139.005 123.453 147.029 120.492 143.318C117.825 139.977 110.707 122.307 108.769 118.406C108.482 118.224 108.314 118.034 108.286 117.834C108.229 117.435 108.41 117.685 108.769 118.406C112.14 120.553 132.016 121.719 137.099 127.746Z" fill="white"/>
<circle cx="90.1167" cy="61.9996" r="34" fill="url(#paint8_linear_592_4)"/>
<mask id="mask3_592_4" style="mask-type:alpha" maskUnits="userSpaceOnUse" x="56" y="27" width="69" height="69">
<circle cx="90.1167" cy="61.9996" r="34" fill="white"/>
</mask>
<g mask="url(#mask3_592_4)">
<path d="M118.343 80.1617C120.562 78.501 111.095 91.5248 106.76 94.8994C106.76 95.5976 88.3457 102.667 85.553 101.794C82.7602 100.921 84.8548 101.008 84.5057 98.4775C84.1566 95.9466 100.564 88.9647 102.397 88.0047C104.229 87.0447 112.192 84.765 118.343 80.1617Z" fill="#FEFFFF"/>
</g>
<path d="M66.7738 47.7272C90.1438 27.1814 110.714 44.3409 109.578 42.4871C104.47 34.1451 94.8367 30.8338 88.1104 31.592C78.5041 32.675 70.0096 37.0662 66.7738 47.7272Z" fill="#242635"/>
<path d="M118.833 57.9557C118.416 56.1135 116.63 52.4685 115.78 51.1589C118.521 51.2966 119.07 53.0969 119.457 53.6321C119.844 54.1673 119.251 59.798 118.833 57.9557Z" fill="#242635"/>
<circle cx="113.479" cy="108.703" r="7.33816" fill="#6366F1"/>
<path d="M117.983 169.716C116.753 167.703 108.142 154.954 107.359 153.835C107.944 162.319 113.697 173.315 117.228 174.274C118.307 174.567 119.213 171.729 117.983 169.716Z" fill="#E1E1E1"/>
<defs>
<radialGradient id="paint0_radial_592_4" cx="0" cy="0" r="1" gradientUnits="userSpaceOnUse" gradientTransform="translate(229.584 141.697) rotate(129.581) scale(113.176 79.9347)">
<stop stop-color="#C3C3C3"/>
<stop offset="0.52403" stop-color="white"/>
<stop offset="1" stop-color="#C8C8C8"/>
</radialGradient>
<linearGradient id="paint1_linear_592_4" x1="103.986" y1="161.423" x2="145.659" y2="233.603" gradientUnits="userSpaceOnUse">
<stop stop-color="white"/>
<stop offset="1" stop-color="#F9F9F9"/>
</linearGradient>
<radialGradient id="paint2_radial_592_4" cx="0" cy="0" r="1" gradientUnits="userSpaceOnUse" gradientTransform="translate(115.118 205.544) rotate(11.7771) scale(48.001 49.107)">
<stop stop-color="#5A5A5A"/>
<stop offset="0.596197" stop-color="#EEEEEE"/>
<stop offset="1" stop-color="white"/>
</radialGradient>
<linearGradient id="paint3_linear_592_4" x1="172.249" y1="74.2245" x2="185.58" y2="104.49" gradientUnits="userSpaceOnUse">
<stop stop-color="white"/>
<stop offset="1" stop-color="#F9F9F9"/>
</linearGradient>
<linearGradient id="paint4_linear_592_4" x1="172.249" y1="74.2245" x2="185.58" y2="104.49" gradientUnits="userSpaceOnUse">
<stop stop-color="white"/>
<stop offset="1" stop-color="#F9F9F9"/>
</linearGradient>
<linearGradient id="paint5_linear_592_4" x1="116.175" y1="83.4862" x2="158.522" y2="156.833" gradientUnits="userSpaceOnUse">
<stop stop-color="white"/>
<stop offset="1" stop-color="#F9F9F9"/>
</linearGradient>
<linearGradient id="paint6_linear_592_4" x1="174.764" y1="82.6862" x2="174.764" y2="106.396" gradientUnits="userSpaceOnUse">
<stop stop-color="white"/>
<stop offset="1" stop-color="#F9F9F9"/>
</linearGradient>
<linearGradient id="paint7_linear_592_4" x1="103.725" y1="126.425" x2="77.8124" y2="130.639" gradientUnits="userSpaceOnUse">
<stop stop-color="#EFEFEF"/>
<stop offset="0.534453" stop-color="white" stop-opacity="0.465547"/>
<stop offset="1" stop-color="#EFEFEF" stop-opacity="0"/>
</linearGradient>
<linearGradient id="paint8_linear_592_4" x1="105.71" y1="8.80288" x2="90.1167" y2="95.9996" gradientUnits="userSpaceOnUse">
<stop stop-color="#7177D1" stop-opacity="0.12"/>
<stop offset="1" stop-color="#242635" stop-opacity="0.22"/>
</linearGradient>
</defs>
</svg>
