<svg width="1558" height="837" viewBox="0 0 1558 837" fill="none" xmlns="http://www.w3.org/2000/svg">
<path d="M848.639 521.593C844.042 524.349 844.042 526.76 843.467 528.483C842.892 527.334 842.318 524.923 837.72 522.167C841.168 518.722 841.743 517.574 842.892 515.278C843.467 516.426 844.042 518.837 848.639 521.593Z" fill="#383B51"/>
<path d="M843.467 528.483L842.953 528.74L843.573 529.979L844.012 528.665L843.467 528.483ZM848.639 521.593L848.934 522.086L849.757 521.593L848.934 521.1L848.639 521.593ZM842.892 515.278L843.406 515.02L842.892 513.994L842.378 515.02L842.892 515.278ZM837.72 522.167L837.314 521.761L836.793 522.281L837.425 522.66L837.72 522.167ZM844.012 528.665C844.339 527.685 844.433 526.809 845.047 525.705C845.634 524.648 846.702 523.424 848.934 522.086L848.344 521.1C845.978 522.518 844.748 523.877 844.042 525.146C843.363 526.367 843.17 527.558 842.922 528.301L844.012 528.665ZM842.378 515.535C842.626 516.029 842.966 517.029 843.792 518.17C844.634 519.332 845.988 520.674 848.344 522.086L848.934 521.1C846.692 519.756 845.461 518.514 844.723 517.495C843.968 516.454 843.734 515.675 843.406 515.02L842.378 515.535ZM843.981 528.226C843.734 527.732 843.394 526.731 842.567 525.591C841.725 524.428 840.371 523.086 838.016 521.674L837.425 522.66C839.667 524.004 840.898 525.246 841.637 526.265C842.391 527.306 842.626 528.086 842.953 528.74L843.981 528.226ZM842.378 515.02C841.802 516.171 841.39 516.994 840.701 517.958C840.009 518.925 839.029 520.047 837.314 521.761L838.126 522.574C839.859 520.843 840.89 519.668 841.636 518.626C842.384 517.58 842.833 516.681 843.406 515.535L842.378 515.02Z" fill="#383B51"/>
<path d="M831.399 118.55C826.802 121.305 826.802 123.717 826.227 125.439C825.652 124.291 825.078 121.88 820.48 119.124C823.928 115.679 824.503 114.531 825.652 112.234C826.227 113.382 826.802 115.794 831.399 118.55Z" fill="#383B51"/>
<path d="M826.227 125.439L825.713 125.696L826.333 126.936L826.772 125.621L826.227 125.439ZM831.399 118.55L831.694 119.043L832.517 118.55L831.694 118.057L831.399 118.55ZM825.652 112.234L826.166 111.977L825.652 110.95L825.138 111.977L825.652 112.234ZM820.48 119.124L820.074 118.717L819.553 119.238L820.185 119.617L820.48 119.124ZM826.772 125.621C827.099 124.642 827.193 123.765 827.807 122.661C828.394 121.605 829.462 120.381 831.694 119.043L831.104 118.057C828.738 119.475 827.508 120.834 826.802 122.103C826.123 123.324 825.93 124.514 825.682 125.257L826.772 125.621ZM825.138 112.491C825.386 112.985 825.726 113.986 826.552 115.126C827.394 116.289 828.748 117.631 831.104 119.043L831.694 118.057C829.452 116.713 828.221 115.471 827.483 114.452C826.728 113.411 826.494 112.631 826.166 111.977L825.138 112.491ZM826.741 125.182C826.494 124.688 826.154 123.688 825.327 122.547C824.485 121.385 823.131 120.043 820.776 118.631L820.185 119.617C822.427 120.961 823.658 122.202 824.397 123.221C825.151 124.263 825.386 125.042 825.713 125.696L826.741 125.182ZM825.138 111.977C824.562 113.128 824.15 113.951 823.461 114.914C822.769 115.881 821.789 117.004 820.074 118.717L820.886 119.53C822.619 117.799 823.65 116.625 824.396 115.583C825.144 114.536 825.593 113.637 826.166 112.491L825.138 111.977Z" fill="#383B51"/>
<path d="M1442.85 237.97C1438.25 240.726 1438.25 243.137 1437.68 244.859C1437.1 243.711 1436.53 241.3 1431.93 238.544C1435.38 235.099 1435.95 233.951 1437.1 231.654C1437.68 232.803 1438.25 235.214 1442.85 237.97Z" fill="#383B51"/>
<path d="M1437.68 244.859L1437.16 245.117L1437.78 246.356L1438.22 245.041L1437.68 244.859ZM1442.85 237.97L1443.14 238.463L1443.97 237.97L1443.14 237.477L1442.85 237.97ZM1437.1 231.654L1437.62 231.397L1437.1 230.37L1436.59 231.397L1437.1 231.654ZM1431.93 238.544L1431.52 238.137L1431 238.658L1431.63 239.037L1431.93 238.544ZM1438.22 245.041C1438.55 244.062 1438.64 243.185 1439.26 242.081C1439.84 241.025 1440.91 239.801 1443.14 238.463L1442.55 237.477C1440.19 238.895 1438.96 240.254 1438.25 241.523C1437.57 242.744 1437.38 243.934 1437.13 244.678L1438.22 245.041ZM1436.59 231.911C1436.84 232.405 1437.18 233.406 1438 234.546C1438.84 235.709 1440.2 237.051 1442.55 238.463L1443.14 237.477C1440.9 236.133 1439.67 234.891 1438.93 233.872C1438.18 232.831 1437.94 232.051 1437.62 231.397L1436.59 231.911ZM1438.19 244.602C1437.94 244.108 1437.6 243.108 1436.78 241.967C1435.93 240.805 1434.58 239.463 1432.23 238.051L1431.63 239.037C1433.88 240.381 1435.11 241.623 1435.85 242.642C1436.6 243.683 1436.84 244.462 1437.16 245.117L1438.19 244.602ZM1436.59 231.397C1436.01 232.548 1435.6 233.371 1434.91 234.334C1434.22 235.301 1433.24 236.424 1431.52 238.137L1432.34 238.95C1434.07 237.219 1435.1 236.045 1435.85 235.003C1436.59 233.957 1437.04 233.057 1437.62 231.911L1436.59 231.397Z" fill="#383B51"/>
<path d="M1065.86 62.2842C1061.27 65.0401 1061.27 67.4515 1060.69 69.1739C1060.12 68.0256 1059.54 65.6142 1054.95 62.8584C1058.39 59.4136 1058.97 58.2653 1060.12 55.9688C1060.69 57.117 1061.27 59.5284 1065.86 62.2842Z" fill="#383B51"/>
<path d="M1060.69 69.1739L1060.18 69.431L1060.8 70.6706L1061.24 69.3557L1060.69 69.1739ZM1065.86 62.2842L1066.16 62.7771L1066.98 62.2842L1066.16 61.7913L1065.86 62.2842ZM1060.12 55.9688L1060.63 55.7116L1060.12 54.6847L1059.6 55.7116L1060.12 55.9688ZM1054.95 62.8584L1054.54 62.4518L1054.02 62.9725L1054.65 63.3513L1054.95 62.8584ZM1061.24 69.3557C1061.56 68.3766 1061.66 67.4999 1062.27 66.3959C1062.86 65.3396 1063.93 64.1152 1066.16 62.7771L1065.57 61.7913C1063.2 63.2092 1061.97 64.5683 1061.27 65.8373C1060.59 67.0585 1060.4 68.2487 1060.15 68.992L1061.24 69.3557ZM1059.6 56.2259C1059.85 56.7199 1060.19 57.7203 1061.02 58.8608C1061.86 60.0234 1063.21 61.3653 1065.57 62.7771L1066.16 61.7913C1063.92 60.4473 1062.69 59.2056 1061.95 58.1865C1061.19 57.1452 1060.96 56.3658 1060.63 55.7116L1059.6 56.2259ZM1061.21 68.9167C1060.96 68.4227 1060.62 67.4223 1059.79 66.2818C1058.95 65.1192 1057.6 63.7773 1055.24 62.3655L1054.65 63.3513C1056.89 64.6953 1058.12 65.937 1058.86 66.9561C1059.62 67.9974 1059.85 68.7768 1060.18 69.431L1061.21 68.9167ZM1059.6 55.7116C1059.03 56.8623 1058.62 57.6854 1057.93 58.6487C1057.23 59.6158 1056.25 60.7382 1054.54 62.4518L1055.35 63.2649C1057.08 61.5337 1058.12 60.3596 1058.86 59.3172C1059.61 58.2711 1060.06 57.3718 1060.63 56.2259L1059.6 55.7116Z" fill="#383B51"/>
<path d="M209.606 163.332C205.008 166.088 205.008 168.499 204.433 170.222C203.859 169.073 203.284 166.662 198.687 163.906C202.135 160.461 202.709 159.313 203.859 157.017C204.433 158.165 205.008 160.576 209.606 163.332Z" fill="#383B51"/>
<path d="M204.433 170.222L203.92 170.479L204.54 171.718L204.979 170.404L204.433 170.222ZM209.606 163.332L209.901 163.825L210.723 163.332L209.901 162.839L209.606 163.332ZM203.859 157.017L204.373 156.759L203.859 155.733L203.345 156.759L203.859 157.017ZM198.687 163.906L198.281 163.5L197.759 164.02L198.391 164.399L198.687 163.906ZM204.979 170.404C205.305 169.424 205.399 168.548 206.013 167.444C206.601 166.388 207.669 165.163 209.901 163.825L209.31 162.839C206.945 164.257 205.714 165.616 205.009 166.885C204.33 168.106 204.136 169.297 203.888 170.04L204.979 170.404ZM203.345 157.274C203.592 157.768 203.932 158.768 204.758 159.909C205.6 161.071 206.955 162.413 209.31 163.825L209.901 162.839C207.659 161.495 206.427 160.254 205.689 159.234C204.935 158.193 204.7 157.414 204.373 156.759L203.345 157.274ZM204.947 169.965C204.7 169.471 204.36 168.47 203.534 167.33C202.692 166.167 201.337 164.825 198.982 163.413L198.391 164.399C200.633 165.743 201.865 166.985 202.603 168.004C203.358 169.045 203.592 169.825 203.92 170.479L204.947 169.965ZM203.345 156.759C202.769 157.91 202.356 158.733 201.667 159.697C200.976 160.664 199.996 161.786 198.281 163.5L199.093 164.313C200.826 162.582 201.857 161.407 202.602 160.365C203.35 159.319 203.799 158.42 204.373 157.274L203.345 156.759Z" fill="#383B51"/>
<path d="M477.402 274.715C472.805 277.471 472.805 279.882 472.23 281.604C471.655 280.456 471.081 278.045 466.483 275.289C469.931 271.844 470.506 270.696 471.655 268.399C472.23 269.547 472.805 271.959 477.402 274.715Z" fill="#383B51"/>
<path d="M472.23 281.604L471.716 281.862L472.336 283.101L472.775 281.786L472.23 281.604ZM477.402 274.715L477.697 275.208L478.52 274.715L477.697 274.222L477.402 274.715ZM471.655 268.399L472.169 268.142L471.655 267.115L471.141 268.142L471.655 268.399ZM466.483 275.289L466.077 274.882L465.556 275.403L466.188 275.782L466.483 275.289ZM472.775 281.786C473.102 280.807 473.196 279.93 473.81 278.826C474.397 277.77 475.465 276.546 477.697 275.208L477.106 274.222C474.741 275.64 473.511 276.999 472.805 278.268C472.126 279.489 471.933 280.679 471.685 281.422L472.775 281.786ZM471.141 268.656C471.389 269.15 471.729 270.151 472.555 271.291C473.397 272.454 474.751 273.796 477.106 275.208L477.697 274.222C475.455 272.878 474.224 271.636 473.485 270.617C472.731 269.576 472.497 268.796 472.169 268.142L471.141 268.656ZM472.744 281.347C472.497 280.853 472.156 279.853 471.33 278.712C470.488 277.55 469.134 276.208 466.779 274.796L466.188 275.782C468.43 277.126 469.661 278.367 470.4 279.387C471.154 280.428 471.389 281.207 471.716 281.862L472.744 281.347ZM471.141 268.142C470.565 269.293 470.152 270.116 469.464 271.079C468.772 272.046 467.792 273.169 466.077 274.882L466.889 275.695C468.622 273.964 469.653 272.79 470.399 271.748C471.147 270.701 471.596 269.802 472.169 268.656L471.141 268.142Z" fill="#383B51"/>
<path d="M429.13 20.9464C424.532 23.7022 424.532 26.1136 423.958 27.836C423.383 26.6877 422.808 24.2764 418.211 21.5205C421.659 18.0757 422.234 16.9274 423.383 14.6309C423.958 15.7791 424.532 18.1905 429.13 20.9464Z" fill="#383B51"/>
<path d="M423.958 27.836L423.444 28.0932L424.064 29.3327L424.503 28.0179L423.958 27.836ZM429.13 20.9464L429.425 21.4393L430.247 20.9464L429.425 20.4535L429.13 20.9464ZM423.383 14.6309L423.897 14.3737L423.383 13.3468L422.869 14.3737L423.383 14.6309ZM418.211 21.5205L417.805 21.114L417.284 21.6346L417.915 22.0134L418.211 21.5205ZM424.503 28.0179C424.829 27.0387 424.923 26.1621 425.537 25.058C426.125 24.0018 427.193 22.7773 429.425 21.4393L428.834 20.4535C426.469 21.8713 425.239 23.2304 424.533 24.4994C423.854 25.7206 423.66 26.9109 423.413 27.6541L424.503 28.0179ZM422.869 14.8881C423.116 15.382 423.456 16.3825 424.282 17.5229C425.125 18.6855 426.479 20.0275 428.834 21.4393L429.425 20.4535C427.183 19.1094 425.951 17.8678 425.213 16.8487C424.459 15.8074 424.224 15.0279 423.897 14.3737L422.869 14.8881ZM424.472 27.5788C424.224 27.0848 423.884 26.0844 423.058 24.944C422.216 23.7814 420.862 22.4394 418.506 21.0276L417.915 22.0134C420.158 23.3575 421.389 24.5991 422.127 25.6182C422.882 26.6595 423.116 27.4389 423.444 28.0932L424.472 27.5788ZM422.869 14.3737C422.293 15.5244 421.88 16.3475 421.191 17.3109C420.5 18.2779 419.52 19.4003 417.805 21.114L418.617 21.927C420.35 20.1958 421.381 19.0217 422.126 17.9793C422.874 16.9332 423.323 16.0339 423.897 14.8881L422.869 14.3737Z" fill="#383B51"/>
<path d="M18.8147 237.97C14.2174 240.726 14.2174 243.137 13.6427 244.859C13.068 243.711 12.4934 241.3 7.896 238.544C11.344 235.099 11.9187 233.951 13.068 231.654C13.6427 232.803 14.2174 235.214 18.8147 237.97Z" fill="#383B51"/>
<path d="M13.6427 244.859L13.1288 245.117L13.7491 246.356L14.1878 245.041L13.6427 244.859ZM18.8147 237.97L19.1102 238.463L19.9325 237.97L19.1102 237.477L18.8147 237.97ZM13.068 231.654L13.5819 231.397L13.068 230.37L12.5541 231.397L13.068 231.654ZM7.896 238.544L7.48983 238.137L6.96867 238.658L7.60053 239.037L7.896 238.544ZM14.1878 245.041C14.5145 244.062 14.6085 243.185 15.2225 242.081C15.8098 241.025 16.8781 239.801 19.1102 238.463L18.5193 237.477C16.154 238.895 14.9236 240.254 14.218 241.523C13.5389 242.744 13.3456 243.934 13.0976 244.678L14.1878 245.041ZM12.5541 231.911C12.8014 232.405 13.1414 233.406 13.9675 234.546C14.8096 235.709 16.1641 237.051 18.5193 238.463L19.1102 237.477C16.868 236.133 15.6365 234.891 14.8983 233.872C14.144 232.831 13.9094 232.051 13.5819 231.397L12.5541 231.911ZM14.1566 244.602C13.9094 244.108 13.5693 243.108 12.7433 241.967C11.9011 240.805 10.5466 239.463 8.19146 238.051L7.60053 239.037C9.84272 240.381 11.0743 241.623 11.8125 242.642C12.5667 243.683 12.8014 244.462 13.1288 245.117L14.1566 244.602ZM12.5541 231.397C11.9782 232.548 11.5653 233.371 10.8765 234.334C10.1852 235.301 9.20504 236.424 7.48983 238.137L8.30216 238.95C10.035 237.219 11.0662 236.045 11.8115 235.003C12.5594 233.957 13.0085 233.057 13.5819 231.911L12.5541 231.397Z" fill="#383B51"/>
<path d="M11.9187 572.117C7.32138 574.873 7.32138 577.284 6.74671 579.007C6.17204 577.858 5.59736 575.447 1 572.691C4.44802 569.246 5.02269 568.098 6.17204 565.802C6.74671 566.95 7.32138 569.361 11.9187 572.117Z" fill="#383B51"/>
<path d="M6.74671 579.007L6.2328 579.264L6.85314 580.503L7.29184 579.189L6.74671 579.007ZM11.9187 572.117L12.2142 572.61L13.0365 572.117L12.2142 571.624L11.9187 572.117ZM6.17204 565.802L6.68594 565.544L6.17204 564.517L5.65813 565.544L6.17204 565.802ZM1 572.691L0.593835 572.285L0.0726758 572.805L0.704537 573.184L1 572.691ZM7.29184 579.189C7.61852 578.209 7.71252 577.333 8.32646 576.229C8.9138 575.172 9.9821 573.948 12.2142 572.61L11.6233 571.624C9.25802 573.042 8.02763 574.401 7.32197 575.67C6.64289 576.891 6.44956 578.082 6.20158 578.825L7.29184 579.189ZM5.65813 566.059C5.90536 566.553 6.2454 567.553 7.07148 568.694C7.91362 569.856 9.2681 571.198 11.6233 572.61L12.2142 571.624C9.97202 570.28 8.74048 569.038 8.00228 568.019C7.24801 566.978 7.01339 566.199 6.68594 565.544L5.65813 566.059ZM7.26061 578.749C7.01339 578.255 6.67334 577.255 5.84726 576.115C5.00512 574.952 3.65064 573.61 1.29546 572.198L0.704537 573.184C2.94672 574.528 4.17826 575.77 4.91646 576.789C5.67073 577.83 5.90536 578.61 6.2328 579.264L7.26061 578.749ZM5.65813 565.544C5.08225 566.695 4.6693 567.518 3.98054 568.482C3.28916 569.449 2.30904 570.571 0.593835 572.285L1.40616 573.098C3.13898 571.366 4.17021 570.192 4.91551 569.15C5.66343 568.104 6.11248 567.205 6.68594 566.059L5.65813 565.544Z" fill="#383B51"/>
<path d="M359.02 828.182C354.422 830.938 354.422 833.349 353.848 835.071C353.273 833.923 352.698 831.512 348.101 828.756C351.549 825.311 352.124 824.163 353.273 821.866C353.848 823.014 354.422 825.426 359.02 828.182Z" fill="#383B51"/>
<path d="M353.848 835.071L353.334 835.328L353.954 836.568L354.393 835.253L353.848 835.071ZM359.02 828.182L359.315 828.675L360.138 828.182L359.315 827.689L359.02 828.182ZM353.273 821.866L353.787 821.609L353.273 820.582L352.759 821.609L353.273 821.866ZM348.101 828.756L347.695 828.349L347.174 828.87L347.806 829.249L348.101 828.756ZM354.393 835.253C354.72 834.274 354.814 833.397 355.428 832.293C356.015 831.237 357.083 830.013 359.315 828.675L358.724 827.689C356.359 829.107 355.129 830.466 354.423 831.735C353.744 832.956 353.551 834.146 353.303 834.889L354.393 835.253ZM352.759 822.123C353.006 822.617 353.346 823.618 354.173 824.758C355.015 825.921 356.369 827.263 358.724 828.675L359.315 827.689C357.073 826.345 355.842 825.103 355.103 824.084C354.349 823.043 354.114 822.263 353.787 821.609L352.759 822.123ZM354.362 834.814C354.114 834.32 353.774 833.32 352.948 832.179C352.106 831.017 350.752 829.675 348.397 828.263L347.806 829.249C350.048 830.593 351.279 831.834 352.018 832.854C352.772 833.895 353.006 834.674 353.334 835.328L354.362 834.814ZM352.759 821.609C352.183 822.76 351.77 823.583 351.082 824.546C350.39 825.513 349.41 826.636 347.695 828.349L348.507 829.162C350.24 827.431 351.271 826.257 352.017 825.215C352.764 824.169 353.214 823.269 353.787 822.123L352.759 821.609Z" fill="#383B51"/>
<path d="M129.152 763.878C124.554 766.634 124.554 769.046 123.98 770.768C123.405 769.62 122.83 767.208 118.233 764.453C121.681 761.008 122.256 759.86 123.405 757.563C123.98 758.711 124.554 761.123 129.152 763.878Z" fill="#383B51"/>
<path d="M123.98 770.768L123.466 771.025L124.086 772.265L124.525 770.95L123.98 770.768ZM129.152 763.878L129.447 764.371L130.269 763.878L129.447 763.386L129.152 763.878ZM123.405 757.563L123.919 757.306L123.405 756.279L122.891 757.306L123.405 757.563ZM118.233 764.453L117.827 764.046L117.306 764.567L117.937 764.945L118.233 764.453ZM124.525 770.95C124.851 769.971 124.945 769.094 125.559 767.99C126.147 766.934 127.215 765.709 129.447 764.371L128.856 763.386C126.491 764.803 125.261 766.163 124.555 767.432C123.876 768.653 123.682 769.843 123.434 770.586L124.525 770.95ZM122.891 757.82C123.138 758.314 123.478 759.315 124.304 760.455C125.147 761.618 126.501 762.96 128.856 764.371L129.447 763.386C127.205 762.042 125.973 760.8 125.235 759.781C124.481 758.739 124.246 757.96 123.919 757.306L122.891 757.82ZM124.494 770.511C124.246 770.017 123.906 769.016 123.08 767.876C122.238 766.713 120.884 765.371 118.528 763.96L117.937 764.945C120.18 766.29 121.411 767.531 122.149 768.55C122.904 769.592 123.138 770.371 123.466 771.025L124.494 770.511ZM122.891 757.306C122.315 758.456 121.902 759.28 121.213 760.243C120.522 761.21 119.542 762.332 117.827 764.046L118.639 764.859C120.372 763.128 121.403 761.954 122.148 760.911C122.896 759.865 123.345 758.966 123.919 757.82L122.891 757.306Z" fill="#383B51"/>
<path d="M1495.72 500.924C1491.12 503.68 1491.12 506.092 1490.55 507.814C1489.97 506.666 1489.4 504.254 1484.8 501.498C1488.25 498.054 1488.82 496.905 1489.97 494.609C1490.55 495.757 1491.12 498.169 1495.72 500.924Z" fill="#383B51"/>
<path d="M1490.55 507.814L1490.03 508.071L1490.65 509.311L1491.09 507.996L1490.55 507.814ZM1495.72 500.924L1496.01 501.417L1496.84 500.924L1496.01 500.431L1495.72 500.924ZM1489.97 494.609L1490.49 494.352L1489.97 493.325L1489.46 494.352L1489.97 494.609ZM1484.8 501.498L1484.39 501.092L1483.87 501.613L1484.5 501.991L1484.8 501.498ZM1491.09 507.996C1491.42 507.017 1491.51 506.14 1492.13 505.036C1492.71 503.98 1493.78 502.755 1496.01 501.417L1495.42 500.431C1493.06 501.849 1491.83 503.208 1491.12 504.477C1490.44 505.699 1490.25 506.889 1490 507.632L1491.09 507.996ZM1489.46 494.866C1489.7 495.36 1490.04 496.36 1490.87 497.501C1491.71 498.663 1493.07 500.005 1495.42 501.417L1496.01 500.431C1493.77 499.087 1492.54 497.846 1491.8 496.827C1491.05 495.785 1490.81 495.006 1490.49 494.352L1489.46 494.866ZM1491.06 507.557C1490.81 507.063 1490.47 506.062 1489.65 504.922C1488.8 503.759 1487.45 502.417 1485.09 501.006L1484.5 501.991C1486.75 503.335 1487.98 504.577 1488.72 505.596C1489.47 506.637 1489.7 507.417 1490.03 508.071L1491.06 507.557ZM1489.46 494.352C1488.88 495.502 1488.47 496.325 1487.78 497.289C1487.09 498.256 1486.11 499.378 1484.39 501.092L1485.21 501.905C1486.94 500.174 1487.97 499 1488.71 497.957C1489.46 496.911 1489.91 496.012 1490.49 494.866L1489.46 494.352Z" fill="#383B51"/>
<path d="M1556.63 144.96C1552.04 147.716 1552.04 150.127 1551.46 151.849C1550.89 150.701 1550.31 148.29 1545.71 145.534C1549.16 142.089 1549.74 140.941 1550.89 138.644C1551.46 139.793 1552.04 142.204 1556.63 144.96Z" fill="#383B51"/>
<path d="M1551.46 151.849L1550.95 152.107L1551.57 153.346L1552.01 152.031L1551.46 151.849ZM1556.63 144.96L1556.93 145.453L1557.75 144.96L1556.93 144.467L1556.63 144.96ZM1550.89 138.644L1551.4 138.387L1550.89 137.36L1550.37 138.387L1550.89 138.644ZM1545.71 145.534L1545.31 145.127L1544.79 145.648L1545.42 146.027L1545.71 145.534ZM1552.01 152.031C1552.33 151.052 1552.43 150.175 1553.04 149.071C1553.63 148.015 1554.7 146.791 1556.93 145.453L1556.34 144.467C1553.97 145.885 1552.74 147.244 1552.04 148.513C1551.36 149.734 1551.16 150.924 1550.92 151.668L1552.01 152.031ZM1550.37 138.901C1550.62 139.395 1550.96 140.396 1551.79 141.536C1552.63 142.699 1553.98 144.041 1556.34 145.453L1556.93 144.467C1554.69 143.123 1553.45 141.881 1552.72 140.862C1551.96 139.821 1551.73 139.041 1551.4 138.387L1550.37 138.901ZM1551.97 151.592C1551.73 151.098 1551.39 150.098 1550.56 148.957C1549.72 147.795 1548.36 146.453 1546.01 145.041L1545.42 146.027C1547.66 147.371 1548.89 148.613 1549.63 149.632C1550.39 150.673 1550.62 151.452 1550.95 152.107L1551.97 151.592ZM1550.37 138.387C1549.8 139.538 1549.38 140.361 1548.69 141.324C1548 142.291 1547.02 143.414 1545.31 145.127L1546.12 145.94C1547.85 144.209 1548.88 143.035 1549.63 141.993C1550.38 140.947 1550.83 140.047 1551.4 138.901L1550.37 138.387Z" fill="#383B51"/>
<path d="M1181.95 8.3155C1177.35 11.0713 1177.35 13.4827 1176.78 15.2051C1176.2 14.0569 1175.63 11.6455 1171.03 8.88963C1174.48 5.44482 1175.05 4.29654 1176.2 2C1176.78 3.14827 1177.35 5.55964 1181.95 8.3155Z" fill="#383B51"/>
<path d="M1176.78 15.2051L1176.26 15.4623L1176.88 16.7019L1177.32 15.387L1176.78 15.2051ZM1181.95 8.3155L1182.24 8.80839L1183.07 8.3155L1182.24 7.8226L1181.95 8.3155ZM1176.2 2L1176.72 1.74281L1176.2 0.71595L1175.69 1.74281L1176.2 2ZM1171.03 8.88963L1170.62 8.48309L1170.1 9.00376L1170.73 9.38253L1171.03 8.88963ZM1177.32 15.387C1177.65 14.4078 1177.74 13.5312 1178.36 12.4271C1178.94 11.3709 1180.01 10.1464 1182.24 8.80839L1181.65 7.8226C1179.29 9.24043 1178.06 10.5996 1177.35 11.8686C1176.67 13.0898 1176.48 14.28 1176.23 15.0232L1177.32 15.387ZM1175.69 2.25719C1175.93 2.75118 1176.27 3.7516 1177.1 4.89202C1177.94 6.05462 1179.3 7.3966 1181.65 8.80839L1182.24 7.8226C1180 6.47854 1178.77 5.2369 1178.03 4.21779C1177.28 3.17649 1177.04 2.39709 1176.72 1.74281L1175.69 2.25719ZM1177.29 14.9479C1177.04 14.4539 1176.7 13.4535 1175.88 12.3131C1175.03 11.1505 1173.68 9.80853 1171.32 8.39673L1170.73 9.38253C1172.98 10.7266 1174.21 11.9682 1174.95 12.9873C1175.7 14.0286 1175.93 14.808 1176.26 15.4623L1177.29 14.9479ZM1175.69 1.74281C1175.11 2.8935 1174.7 3.71663 1174.01 4.67999C1173.32 5.64702 1172.34 6.76948 1170.62 8.48309L1171.44 9.29617C1173.17 7.56497 1174.2 6.39088 1174.94 5.34844C1175.69 4.30232 1176.14 3.40304 1176.72 2.25719L1175.69 1.74281Z" fill="#383B51"/>
<path d="M1206.08 219.597C1201.49 222.353 1201.49 224.765 1200.91 226.487C1200.34 225.339 1199.76 222.927 1195.17 220.172C1198.61 216.727 1199.19 215.579 1200.34 213.282C1200.91 214.43 1201.49 216.842 1206.08 219.597Z" fill="#383B51"/>
<path d="M1200.91 226.487L1200.4 226.744L1201.02 227.984L1201.46 226.669L1200.91 226.487ZM1206.08 219.597L1206.38 220.09L1207.2 219.597L1206.38 219.105L1206.08 219.597ZM1200.34 213.282L1200.85 213.025L1200.34 211.998L1199.82 213.025L1200.34 213.282ZM1195.17 220.172L1194.76 219.765L1194.24 220.286L1194.87 220.665L1195.17 220.172ZM1201.46 226.669C1201.78 225.69 1201.88 224.813 1202.49 223.709C1203.08 222.653 1204.15 221.428 1206.38 220.09L1205.79 219.105C1203.42 220.522 1202.19 221.882 1201.49 223.151C1200.81 224.372 1200.62 225.562 1200.37 226.305L1201.46 226.669ZM1199.82 213.539C1200.07 214.033 1200.41 215.034 1201.24 216.174C1202.08 217.337 1203.43 218.679 1205.79 220.09L1206.38 219.105C1204.14 217.761 1202.91 216.519 1202.17 215.5C1201.41 214.458 1201.18 213.679 1200.85 213.025L1199.82 213.539ZM1201.43 226.23C1201.18 225.736 1200.84 224.736 1200.01 223.595C1199.17 222.432 1197.82 221.091 1195.46 219.679L1194.87 220.665C1197.11 222.009 1198.34 223.25 1199.08 224.269C1199.84 225.311 1200.07 226.09 1200.4 226.744L1201.43 226.23ZM1199.82 213.025C1199.25 214.175 1198.83 214.999 1198.15 215.962C1197.45 216.929 1196.47 218.051 1194.76 219.765L1195.57 220.578C1197.3 218.847 1198.34 217.673 1199.08 216.63C1199.83 215.584 1200.28 214.685 1200.85 213.539L1199.82 213.025Z" fill="#383B51"/>
</svg>
