<svg width="925" height="667" viewBox="0 0 925 667" fill="none" xmlns="http://www.w3.org/2000/svg">
<path d="M698.45 491.628C707.852 618.137 347.616 624.917 380.044 275.744C417.048 -122.707 161.676 -122.143 1 -109.386" stroke="url(#paint0_linear_592_4)" stroke-width="5.74671"/>
<path d="M676.398 412.909C678.521 407.821 687.435 406.289 692.024 405.27C697.086 404.146 704.944 401.875 706.642 404.56C708.34 407.246 722.53 483.721 721.398 484.993C720.266 486.266 693.238 489.516 689.842 487.396C686.446 485.276 674.276 417.997 676.398 412.909Z" fill="#E1E1E1"/>
<path fill-rule="evenodd" clip-rule="evenodd" d="M693.744 390.868C689.015 390.202 684.491 388.26 681.44 384.296C672.65 372.875 689.729 361.976 697.46 364.823C705.191 367.669 717.065 381.742 714.16 386.047C713.002 387.764 708.961 389.649 703.964 390.571L718.833 403.21L706.766 413.896L693.744 390.868Z" fill="#FFB287"/>
<path fill-rule="evenodd" clip-rule="evenodd" d="M687.448 363.136C685.353 364.094 682.808 366.043 681.903 367.05C681.259 365.171 680.13 363.442 678.624 362.119C677.16 360.832 675.421 360.174 673.678 359.414C672.875 359.063 672.038 358.748 671.169 358.706C670.283 358.663 669.411 358.889 668.652 359.3C667.875 359.721 667.212 360.33 666.687 361.037C666.455 361.35 666.315 361.707 666.099 362.028C665.878 362.356 665.58 362.3 665.212 362.304C664.325 362.314 663.4 362.751 662.697 363.236C661.909 363.78 661.266 364.541 660.794 365.376C660.336 366.189 660.029 367.121 660.029 368.083C660.029 368.511 660.078 368.954 660.22 369.367C660.278 369.536 660.335 369.617 660.252 369.771C660.175 369.914 660.042 370.034 659.96 370.178C659.163 371.573 658.97 373.315 659.442 374.914C659.717 375.847 660.6 377.137 661.795 378.402C662.989 379.667 667.176 382.019 669.374 382.284C671.335 382.52 673.424 381.972 675.099 381.059C675.112 382.931 675.667 384.794 676.402 386.537C677.201 388.431 678.239 390.215 679.495 391.857C680.688 393.417 682.053 394.975 683.669 396.104C685.181 397.16 686.845 397.651 688.612 397.332C689.421 397.186 690.2 396.925 690.964 396.641C691.717 396.361 692.466 396.073 693.161 395.674C694.476 394.92 695.722 393.746 695.793 392.103C695.819 391.511 695.803 390.81 695.682 390.222C695.639 390.01 695.607 389.875 695.387 389.825C695.123 389.766 694.821 389.809 694.556 389.815C693.044 389.848 691.643 389.345 690.479 388.304C689.298 387.248 688.265 385.449 688.955 383.921C689.805 382.035 692.008 381.385 693.867 380.951C692.729 378.595 692.32 375.928 693.272 373.542C694.326 370.903 696.409 368.858 697.635 366.308C697.955 365.643 698.258 364.941 698.246 364.174C698.242 363.853 698.216 363.455 698.065 363.159C697.866 362.77 697.427 362.685 697.051 362.578C695.055 362.012 689.543 362.178 687.448 363.136Z" fill="#191847"/>
<path fill-rule="evenodd" clip-rule="evenodd" d="M730.254 467.289L815.261 514.595L882.989 556.975L889.972 552.949L758.581 450.956L730.254 467.289Z" fill="white"/>
<path fill-rule="evenodd" clip-rule="evenodd" d="M877.087 556.6C877.44 558.712 877.866 560.2 878.365 561.062C878.971 562.111 880.031 563.541 881.544 565.351C882.761 564.649 893.705 558.339 914.373 546.421C913.597 543.111 912.225 541.873 910.257 542.708C908.289 543.544 906.645 544.221 905.325 544.741L886.136 546.742C885.767 546.781 885.499 547.111 885.538 547.48C885.538 547.486 885.539 547.492 885.54 547.499L885.933 550.442C884.691 552.216 883.537 553.41 882.473 554.024C881.609 554.522 880.214 554.861 878.287 555.042L878.287 555.042C877.548 555.111 877.005 555.766 877.075 556.505C877.078 556.536 877.082 556.568 877.087 556.6Z" fill="#6366F1"/>
<path d="M914.241 545.736C913.809 545.472 891.841 558.017 880.911 564.322C880.793 564.904 881.343 565.456 881.808 565.881C882.274 566.306 914.576 547.897 914.885 547.188C915.194 546.48 914.781 546.066 914.241 545.736Z" fill="#4D4FB8"/>
<path fill-rule="evenodd" clip-rule="evenodd" d="M868.331 552.39L879.445 540.554C863.355 526.331 844.911 511.105 824.111 494.876C803.312 478.647 782.307 463.524 761.097 449.505L723.061 471.437C748.385 490.037 773.051 505.983 797.059 519.275C821.068 532.567 844.825 543.606 868.331 552.39Z" fill="url(#paint1_radial_592_4)"/>
<path fill-rule="evenodd" clip-rule="evenodd" d="M727.399 468.942C737.994 496.683 748.873 533.658 748.709 535.088C748.599 536.041 734.219 552.292 705.57 583.843L710.636 589.127C749.077 558.9 768.462 541.469 768.791 536.831C769.285 529.876 763.342 480.601 755.85 452.537L727.399 468.942Z" fill="url(#paint2_linear_592_4)"/>
<path fill-rule="evenodd" clip-rule="evenodd" d="M714.858 571.394L723.245 579.772C756.199 564.436 774.27 551.369 777.455 540.57C780.641 529.772 774.177 500.002 758.062 451.262L721.791 472.176C736.663 511.121 744.193 531.537 744.38 533.423C744.568 535.31 734.727 547.967 714.858 571.394Z" fill="url(#paint3_radial_592_4)"/>
<path fill-rule="evenodd" clip-rule="evenodd" d="M705.792 580.287C703.772 581 702.38 581.676 701.616 582.316C700.688 583.094 699.464 584.384 697.942 586.185C698.846 587.261 706.971 596.932 722.315 615.197C725.443 613.86 726.424 612.296 725.258 610.505C724.092 608.715 723.138 607.215 722.396 606.006L717.083 587.48C716.981 587.124 716.609 586.917 716.252 587.019C716.246 587.021 716.24 587.023 716.234 587.025L713.402 587.921C711.436 587.006 710.059 586.078 709.269 585.138C708.627 584.374 708.05 583.061 707.537 581.197L707.537 581.197C707.34 580.482 706.6 580.062 705.884 580.258C705.853 580.267 705.823 580.276 705.792 580.287Z" fill="#6366F1"/>
<path fill-rule="evenodd" clip-rule="evenodd" d="M774.85 408.938L786.002 394.389C784.604 385.63 785.33 380.595 788.179 379.283C789.933 377.287 790.467 388.896 794.269 386.197C798.071 383.497 804.932 371.423 807.37 372.19C810.977 373.324 811.743 381.34 810.544 386.022C808.305 394.774 805.056 398.858 795.886 406.369C791.092 410.296 786.528 415.948 782.196 423.325L774.85 408.938Z" fill="url(#paint4_linear_592_4)"/>
<mask id="mask0_592_4" style="mask-type:alpha" maskUnits="userSpaceOnUse" x="774" y="372" width="38" height="52">
<path fill-rule="evenodd" clip-rule="evenodd" d="M774.85 408.938L786.002 394.389C784.604 385.63 785.33 380.595 788.18 379.283C789.933 377.287 790.467 388.896 794.269 386.197C798.072 383.497 804.932 371.423 807.37 372.19C810.977 373.324 811.743 381.34 810.545 386.022C808.305 394.773 805.056 398.858 795.886 406.369C791.092 410.296 786.529 415.948 782.196 423.325L774.85 408.938Z" fill="url(#paint5_linear_592_4)"/>
</mask>
<g mask="url(#mask0_592_4)">
<path d="M785.219 391.863C784.753 392.163 785.165 395.066 785.429 396.48C785.887 396.772 791.219 406.505 795.342 407.587C799.464 408.669 802.336 404.303 802.711 403.43C803.086 402.556 791.715 392.738 789.466 391.49C787.218 390.242 785.802 391.489 785.219 391.863Z" fill="#E1E1E1"/>
</g>
<path d="M750.833 395.327L728.457 426.434L739.315 429.203L756.727 400.448C764.11 392.966 767.104 388.882 765.707 388.194C763.611 387.163 762.077 389.93 760.55 389.463C759.022 388.995 758.777 384.423 758.731 380.075C758.684 375.726 756.87 377.153 756.012 378.277C753.757 382.917 752.031 388.6 750.833 395.327Z" fill="#E1E1E1"/>
<mask id="mask1_592_4" style="mask-type:alpha" maskUnits="userSpaceOnUse" x="728" y="377" width="39" height="53">
<path d="M750.833 395.326L728.457 426.434L739.315 429.203L756.727 400.448C764.111 392.966 767.104 388.882 765.707 388.194C763.611 387.163 762.077 389.93 760.55 389.463C759.022 388.995 758.777 384.423 758.731 380.075C758.684 375.726 756.87 377.153 756.012 378.277C753.757 382.917 752.031 388.6 750.833 395.326Z" fill="#E1E1E1"/>
</mask>
<g mask="url(#mask1_592_4)">
<path d="M760.74 397.645C760.8 397.197 754.117 394.374 750.768 393.018C750.376 392.608 748.92 396.169 748.789 397.139C748.659 398.109 756.614 400.647 758.314 400.983C760.013 401.319 760.666 398.205 760.74 397.645Z" fill="#B9B9B9"/>
</g>
<path fill-rule="evenodd" clip-rule="evenodd" d="M727.53 417.295C734.563 413.14 743.136 406.206 749.513 394.015L758.562 400.546C755.598 411.437 749.104 422.726 740.426 427.409C733.588 431.1 725.447 424.95 727.53 417.295Z" fill="#E1E1E1"/>
<path fill-rule="evenodd" clip-rule="evenodd" d="M745.223 425.928C753.817 423.469 765.138 413.998 779.186 397.515C788.813 404.053 794.577 409.348 796.478 413.4C785.887 430.063 774.927 441.089 764.35 447.498C768.362 453.652 771.082 460.141 771.675 467.161C772.895 481.592 735.534 489.118 726.212 497.252C707.268 479.674 714.982 463.644 707.086 449.961C698.438 434.977 697.146 404.983 698.917 403.962L715.066 394.651C722.57 405.576 734.343 415.596 745.223 425.928Z" fill="url(#paint6_linear_592_4)"/>
<path d="M797.063 416.412C797.063 415.034 782.886 403.208 775.798 397.468C775.798 395.746 777.522 389.431 779.821 389.431C782.12 389.431 803.385 408.949 803.96 409.523C804.535 410.097 797.063 418.134 797.063 416.412Z" fill="url(#paint7_linear_592_4)"/>
<path d="M758.934 405.25C758.806 404.565 750.316 400.066 746.087 397.901C745.927 397.045 746.235 393.735 747.433 393.511C748.63 393.287 761.531 400.921 761.884 401.151C762.237 401.38 759.095 406.107 758.934 405.25Z" fill="#E1E1E1"/>
<rect width="11.8172" height="4.90834" rx="2.29868" transform="matrix(0.995375 -0.0960688 0.0962916 0.995353 692.123 488.303)" fill="#E1E1E1"/>
<path d="M676.624 408.092C678.7 407.322 680.558 409.644 679.351 411.5L672.141 422.591C671.74 423.206 671.07 423.594 670.337 423.633L668.893 423.71C667.625 423.778 666.542 422.805 666.474 421.538L666.056 413.736C666.002 412.731 666.608 411.808 667.551 411.458L676.624 408.092Z" fill="#E1E1E1"/>
<path d="M721.001 459.346C727.304 465.641 749.329 454.314 754.306 451.644C748.736 457.294 722.567 470.242 718.884 466.359C714.879 462.136 708.542 432.678 709.209 435.567C709.877 438.456 714.048 452.401 721.001 459.346Z" fill="#E1E1E1"/>
<path d="M752.467 481.875C752.966 481.47 753.422 481.116 753.811 480.828C753.644 481.055 753.171 481.416 752.467 481.875C749.767 484.07 745.829 487.774 744.771 490.701C743.204 495.035 733.199 501.536 732.717 501.055C732.235 500.573 728.739 494.192 730.186 493.59C731.451 493.064 747.559 485.078 752.467 481.875Z" fill="#E1E1E1"/>
<path d="M766.126 476.354C765.879 477.749 771.247 495.492 773.985 505.645C774.443 507.348 782.815 510.67 781.583 510.157C780.351 509.645 766.434 474.61 766.126 476.354Z" fill="#E1E1E1"/>
<path d="M662.84 430.791C664.412 427.025 671.011 425.89 674.408 425.136C678.155 424.304 684.106 424.199 685.363 426.187C686.62 428.176 696.991 483.213 696.153 484.155C695.315 485.097 675.307 487.503 672.792 485.934C670.278 484.364 661.269 434.558 662.84 430.791Z" fill="#E1E1E1"/>
<path d="M670.132 413.116C672.255 408.028 681.169 406.495 685.758 405.477C690.82 404.353 698.678 402.082 700.376 404.767C702.074 407.452 716.264 483.928 715.132 485.2C714 486.472 686.972 489.723 683.576 487.603C680.179 485.483 668.01 418.204 670.132 413.116Z" fill="#F5F5F5"/>
<mask id="mask2_592_4" style="mask-type:alpha" maskUnits="userSpaceOnUse" x="662" y="424" width="35" height="63">
<path d="M662.84 430.791C664.412 427.025 671.011 425.89 674.408 425.136C678.155 424.304 684.106 424.199 685.363 426.187C686.62 428.176 696.991 483.213 696.153 484.155C695.315 485.097 675.307 487.503 672.792 485.934C670.278 484.364 661.269 434.558 662.84 430.791Z" fill="white"/>
</mask>
<g mask="url(#mask2_592_4)">
<path d="M669.646 447.607C669.593 447.343 666.043 427.234 665.249 426.652" stroke="#6366F1" stroke-width="3.44802"/>
</g>
<path d="M688.5 479.827C687.264 479.357 682.245 451.995 679.89 438.373C679.449 425.07 696.521 424.776 698.802 434.478C699.121 435.836 708.221 477.034 708 478.063C707.779 479.092 690.045 480.415 688.5 479.827Z" fill="white"/>
<path d="M686.183 476.578C684.727 476.024 678.814 443.79 676.04 427.742C675.52 412.07 695.632 411.724 698.319 423.153C698.695 424.753 709.416 473.288 709.156 474.5C708.896 475.712 688.003 477.271 686.183 476.578Z" fill="url(#paint8_linear_592_4)"/>
<path d="M686.577 478.492C685.588 477.579 685.657 476.527 685.816 476.115C687.529 473.739 708.37 472.218 709.226 472.978C710.083 473.739 709.416 475.069 709.226 476.115C709.036 477.161 687.814 479.632 686.577 478.492Z" fill="#E1E1E1"/>
<path d="M746.6 441.166C752.145 447.732 755.776 449.372 757.452 449.304C752.919 454.092 730.915 463.305 727.511 459.045C724.446 455.209 716.263 434.921 714.035 430.443C713.706 430.233 713.513 430.015 713.48 429.785C713.415 429.327 713.623 429.614 714.035 430.443C717.911 432.908 740.758 434.246 746.6 441.166Z" fill="white"/>
<ellipse cx="692.595" cy="365.68" rx="39.0821" ry="39.0364" fill="url(#paint9_linear_592_4)"/>
<mask id="mask3_592_4" style="mask-type:alpha" maskUnits="userSpaceOnUse" x="653" y="326" width="79" height="79">
<ellipse cx="692.595" cy="365.68" rx="39.0821" ry="39.0364" fill="white"/>
</mask>
<g mask="url(#mask3_592_4)">
<path d="M725.041 386.533C727.591 384.626 716.709 399.579 711.727 403.454C711.727 404.255 690.56 412.371 687.349 411.369C684.139 410.367 686.547 410.468 686.146 407.562C685.744 404.656 704.604 396.64 706.711 395.538C708.818 394.435 717.97 391.818 725.041 386.533Z" fill="#FEFFFF"/>
</g>
<path d="M665.763 349.294C692.627 325.705 716.271 345.406 714.966 343.277C709.094 333.7 698.021 329.898 690.289 330.769C679.247 332.012 669.483 337.054 665.763 349.294Z" fill="#242635"/>
<path d="M725.604 361.037C725.124 358.922 723.072 354.737 722.095 353.234C725.245 353.392 725.876 355.459 726.32 356.073C726.765 356.688 726.084 363.152 725.604 361.037Z" fill="#242635"/>
<ellipse cx="719.449" cy="419.302" rx="8.43499" ry="8.42514" fill="#6366F1"/>
<path d="M724.213 487.233C722.798 484.922 712.9 470.284 712 469C712.673 478.741 719.286 491.365 723.344 492.466C724.585 492.802 725.627 489.544 724.213 487.233Z" fill="#E1E1E1"/>
<defs>
<linearGradient id="paint0_linear_592_4" x1="127.18" y1="38.4459" x2="720.557" y2="544.148" gradientUnits="userSpaceOnUse">
<stop stop-color="#242635"/>
<stop offset="1" stop-color="#494D69"/>
</linearGradient>
<radialGradient id="paint1_radial_592_4" cx="0" cy="0" r="1" gradientUnits="userSpaceOnUse" gradientTransform="translate(852.893 457.194) rotate(129.608) scale(129.968 91.855)">
<stop stop-color="#C3C3C3"/>
<stop offset="0.52403" stop-color="white"/>
<stop offset="1" stop-color="#C8C8C8"/>
</radialGradient>
<linearGradient id="paint2_linear_592_4" x1="708.529" y1="479.822" x2="756.354" y2="562.766" gradientUnits="userSpaceOnUse">
<stop stop-color="white"/>
<stop offset="1" stop-color="#F9F9F9"/>
</linearGradient>
<radialGradient id="paint3_radial_592_4" cx="0" cy="0" r="1" gradientUnits="userSpaceOnUse" gradientTransform="translate(721.338 530.484) rotate(11.7773) scale(55.1753 56.382)">
<stop stop-color="#5A5A5A"/>
<stop offset="0.596197" stop-color="#EEEEEE"/>
<stop offset="1" stop-color="white"/>
</radialGradient>
<linearGradient id="paint4_linear_592_4" x1="787.001" y1="379.712" x2="802.295" y2="414.485" gradientUnits="userSpaceOnUse">
<stop stop-color="white"/>
<stop offset="1" stop-color="#F9F9F9"/>
</linearGradient>
<linearGradient id="paint5_linear_592_4" x1="787.001" y1="379.712" x2="802.295" y2="414.485" gradientUnits="userSpaceOnUse">
<stop stop-color="white"/>
<stop offset="1" stop-color="#F9F9F9"/>
</linearGradient>
<linearGradient id="paint6_linear_592_4" x1="722.54" y1="390.341" x2="771.138" y2="474.626" gradientUnits="userSpaceOnUse">
<stop stop-color="white"/>
<stop offset="1" stop-color="#F9F9F9"/>
</linearGradient>
<linearGradient id="paint7_linear_592_4" x1="789.895" y1="389.431" x2="789.895" y2="416.653" gradientUnits="userSpaceOnUse">
<stop stop-color="white"/>
<stop offset="1" stop-color="#F9F9F9"/>
</linearGradient>
<linearGradient id="paint8_linear_592_4" x1="708.238" y1="439.649" x2="678.454" y2="444.499" gradientUnits="userSpaceOnUse">
<stop stop-color="#EFEFEF"/>
<stop offset="0.534453" stop-color="white" stop-opacity="0.465547"/>
<stop offset="1" stop-color="#EFEFEF" stop-opacity="0"/>
</linearGradient>
<linearGradient id="paint9_linear_592_4" x1="710.519" y1="304.604" x2="692.636" y2="404.724" gradientUnits="userSpaceOnUse">
<stop stop-color="#7177D1" stop-opacity="0.12"/>
<stop offset="1" stop-color="#242635" stop-opacity="0.22"/>
</linearGradient>
</defs>
</svg>
