<?xml version="1.0" encoding="UTF-8" standalone="no"?>
<svg
   width="456"
   height="322"
   viewBox="0 0 456 322"
   fill="none"
   version="1.1"
   id="svg147"
   sodipodi:docname="s2.svg"
   inkscape:version="1.1 (c68e22c387, 2021-05-23)"
   xmlns:inkscape="http://www.inkscape.org/namespaces/inkscape"
   xmlns:sodipodi="http://sodipodi.sourceforge.net/DTD/sodipodi-0.dtd"
   xmlns="http://www.w3.org/2000/svg"
   xmlns:svg="http://www.w3.org/2000/svg">
  <sodipodi:namedview
     id="namedview149"
     pagecolor="#ffffff"
     bordercolor="#999999"
     borderopacity="1"
     inkscape:pageshadow="0"
     inkscape:pageopacity="0"
     inkscape:pagecheckerboard="0"
     showgrid="false"
     inkscape:zoom="2"
     inkscape:cx="254.75"
     inkscape:cy="207"
     inkscape:window-width="1920"
     inkscape:window-height="1001"
     inkscape:window-x="-9"
     inkscape:window-y="-9"
     inkscape:window-maximized="1"
     inkscape:current-layer="svg147" />
  <mask
     id="mask0_592_4"
     maskUnits="userSpaceOnUse"
     x="161"
     y="67"
     width="33"
     height="46">
    <path
       fill-rule="evenodd"
       clip-rule="evenodd"
       d="m 161.671,99.6795 9.706,-12.6732 c -1.215,-7.6273 -0.582,-12.0127 1.898,-13.1561 1.526,-1.7385 1.988,8.3718 5.296,6.02 3.309,-2.3517 9.28,-12.8683 11.401,-12.2012 3.138,0.9868 3.803,7.9679 2.759,12.0459 -1.95,7.6218 -4.777,11.1798 -12.757,17.7229 -4.172,3.4212 -8.143,8.3442 -11.914,14.7692 z"
       fill="url(#paint4_linear_592_4)"
       id="path24" />
  </mask>
  <mask
     id="mask1_592_4"
     maskUnits="userSpaceOnUse"
     x="121"
     y="71"
     width="34"
     height="47">
    <path
       d="m 140.783,87.8206 -19.473,27.0964 9.446,2.408 15.154,-25.0454 c 6.425,-6.5172 9.03,-10.0751 7.814,-10.6736 -1.823,-0.8977 -3.158,1.5129 -4.486,1.1061 -1.329,-0.4068 -1.541,-4.3884 -1.581,-8.1755 -0.04,-3.7871 -1.618,-2.5444 -2.365,-1.565 -1.962,4.041 -3.465,8.9907 -4.509,14.849 z"
       fill="#e1e1e1"
       id="path33" />
  </mask>
  <mask
     id="mask2_592_4"
     maskUnits="userSpaceOnUse"
     x="64"
     y="113"
     width="30"
     height="55">
    <path
       d="m 64.231,118.71 c 1.367,-3.281 7.1077,-4.269 10.0633,-4.926 3.2599,-0.724 8.4371,-0.815 9.5307,0.916 1.0936,1.732 10.116,49.669 9.3869,50.489 -0.7291,0.82 -18.1358,2.916 -20.3231,1.549 C 70.7016,165.371 62.864,121.991 64.231,118.71 Z"
       fill="#ffffff"
       id="path62" />
  </mask>
  <mask
     id="mask3_592_4"
     maskUnits="userSpaceOnUse"
     x="56"
     y="27"
     width="69"
     height="69">
    <circle
       cx="90.116699"
       cy="61.999599"
       r="34"
       fill="#ffffff"
       id="circle79" />
  </mask>
  <defs
     id="defs145">
    <radialGradient
       id="paint0_radial_592_4"
       cx="0"
       cy="0"
       r="1"
       gradientUnits="userSpaceOnUse"
       gradientTransform="matrix(-72.112176,87.227525,-61.607638,-50.931868,229.584,141.697)">
      <stop
         stop-color="#C3C3C3"
         id="stop94" />
      <stop
         offset="0.52403"
         stop-color="white"
         id="stop96" />
      <stop
         offset="1"
         stop-color="#C8C8C8"
         id="stop98" />
    </radialGradient>
    <linearGradient
       id="paint1_linear_592_4"
       x1="103.986"
       y1="161.423"
       x2="145.659"
       y2="233.603"
       gradientUnits="userSpaceOnUse">
      <stop
         stop-color="white"
         id="stop101" />
      <stop
         offset="1"
         stop-color="#F9F9F9"
         id="stop103" />
    </linearGradient>
    <radialGradient
       id="paint2_radial_592_4"
       cx="0"
       cy="0"
       r="1"
       gradientUnits="userSpaceOnUse"
       gradientTransform="matrix(46.990533,9.7972346,-10.022974,48.073251,115.118,205.544)">
      <stop
         stop-color="#5A5A5A"
         id="stop106" />
      <stop
         offset="0.596197"
         stop-color="#EEEEEE"
         id="stop108" />
      <stop
         offset="1"
         stop-color="white"
         id="stop110" />
    </radialGradient>
    <linearGradient
       id="paint3_linear_592_4"
       x1="172.24899"
       y1="74.224503"
       x2="185.58"
       y2="104.49"
       gradientUnits="userSpaceOnUse">
      <stop
         stop-color="white"
         id="stop113" />
      <stop
         offset="1"
         stop-color="#F9F9F9"
         id="stop115" />
    </linearGradient>
    <linearGradient
       id="paint4_linear_592_4"
       x1="172.24899"
       y1="74.224503"
       x2="185.58"
       y2="104.49"
       gradientUnits="userSpaceOnUse">
      <stop
         stop-color="white"
         id="stop118" />
      <stop
         offset="1"
         stop-color="#F9F9F9"
         id="stop120" />
    </linearGradient>
    <linearGradient
       id="paint5_linear_592_4"
       x1="116.175"
       y1="83.486198"
       x2="158.522"
       y2="156.83299"
       gradientUnits="userSpaceOnUse">
      <stop
         stop-color="white"
         id="stop123" />
      <stop
         offset="1"
         stop-color="#F9F9F9"
         id="stop125" />
    </linearGradient>
    <linearGradient
       id="paint6_linear_592_4"
       x1="174.76401"
       y1="82.686203"
       x2="174.76401"
       y2="106.396"
       gradientUnits="userSpaceOnUse">
      <stop
         stop-color="white"
         id="stop128" />
      <stop
         offset="1"
         stop-color="#F9F9F9"
         id="stop130" />
    </linearGradient>
    <linearGradient
       id="paint7_linear_592_4"
       x1="103.725"
       y1="126.425"
       x2="77.812401"
       y2="130.63901"
       gradientUnits="userSpaceOnUse">
      <stop
         stop-color="#EFEFEF"
         id="stop133" />
      <stop
         offset="0.534453"
         stop-color="white"
         stop-opacity="0.465547"
         id="stop135" />
      <stop
         offset="1"
         stop-color="#EFEFEF"
         stop-opacity="0"
         id="stop137" />
    </linearGradient>
    <linearGradient
       id="paint8_linear_592_4"
       x1="105.71"
       y1="8.8028803"
       x2="90.116699"
       y2="95.999603"
       gradientUnits="userSpaceOnUse">
      <stop
         stop-color="#7177D1"
         stop-opacity="0.12"
         id="stop140" />
      <stop
         offset="1"
         stop-color="#242635"
         stop-opacity="0.22"
         id="stop142" />
    </linearGradient>
    <linearGradient
       id="paint0_linear_483_220"
       x1="159.741"
       y1="-9.2987003"
       x2="604.271"
       y2="386.487"
       gradientUnits="userSpaceOnUse">
      <stop
         stop-color="#242635"
         id="stop4" />
      <stop
         offset="1"
         stop-color="#494D69"
         id="stop6" />
    </linearGradient>
    <clipPath
       clipPathUnits="userSpaceOnUse"
       id="clipPath1033">
      <rect
         style="fill:#ef444e;stroke-width:7.55906;stroke-linecap:round;stroke-linejoin:round;stroke-opacity:0.377828"
         id="rect1035"
         width="779.88843"
         height="472.07254"
         x="0"
         y="0"
         ry="0" />
    </clipPath>
  </defs>
  <g
     id="g1104"
     transform="matrix(0.99828074,0,0,1.0015986,166.45228,36.229476)">
    <g
       id="g1060">
      <path
         d="m 76.0261,103.135 c 1.8466,-4.432 9.6012,-5.7666 13.5937,-6.6538 4.4035,-0.9787 11.2402,-2.9571 12.7172,-0.6181 1.477,2.339 13.822,68.9479 12.837,70.0559 -0.985,1.108 -24.4982,3.939 -27.4527,2.093 -2.9546,-1.847 -13.5417,-60.445 -11.6952,-64.877 z"
         fill="#e1e1e1"
         id="path2" />
      <path
         fill-rule="evenodd"
         clip-rule="evenodd"
         d="m 91.115,83.9393 c -4.1145,-0.5791 -8.0506,-2.2696 -10.7039,-5.7217 -7.6451,-9.9465 7.2162,-19.4433 13.942,-16.9652 6.7259,2.4781 17.0529,14.7334 14.5249,18.4835 -1.008,1.4955 -4.524,3.1386 -8.871,3.9429 l 12.934,11.0055 -10.502,9.3107 z"
         fill="#ffb287"
         id="path4" />
      <path
         fill-rule="evenodd"
         clip-rule="evenodd"
         d="m 85.6413,59.7825 c -1.8229,0.8347 -4.0375,2.5331 -4.8248,3.4104 -0.5604,-1.6362 -1.5423,-3.1422 -2.8522,-4.2947 -1.2728,-1.12 -2.7856,-1.6931 -4.3017,-2.3551 -0.6988,-0.3051 -1.4271,-0.5791 -2.1834,-0.6158 -0.7704,-0.0375 -1.529,0.1594 -2.1895,0.5181 -0.676,0.367 -1.2527,0.8976 -1.7096,1.5135 -0.2021,0.2724 -0.3243,0.5836 -0.5119,0.8628 -0.1922,0.2858 -0.4516,0.237 -0.7718,0.2406 -0.7717,0.0088 -1.5769,0.3894 -2.1882,0.812 -0.6859,0.4743 -1.2458,1.1376 -1.656,1.865 -0.3993,0.708 -0.6663,1.5196 -0.6662,2.3572 0,0.3728 0.0426,0.7594 0.166,1.1185 0.0506,0.1474 0.0998,0.2177 0.0273,0.3524 -0.067,0.1246 -0.1823,0.2287 -0.254,0.3543 -0.6937,1.2148 -0.8622,2.7324 -0.4517,4.1252 0.2394,0.8125 1.0076,1.9359 2.0465,3.0373 1.0388,1.1013 4.6809,3.1495 6.5927,3.3793 1.7064,0.2052 3.5239,-0.2724 4.9812,-1.0681 0.0107,1.6312 0.4935,3.2535 1.133,4.7718 0.6947,1.6492 1.597,3.2028 2.6892,4.6325 1.0377,1.3583 2.2251,2.715 3.631,3.6983 1.3148,0.9194 2.7623,1.3468 4.2997,1.0688 0.7043,-0.1272 1.3819,-0.3546 2.0464,-0.6024 0.6549,-0.2443 1.3066,-0.495 1.9114,-0.8425 1.1445,-0.6577 2.2287,-1.6801 2.2911,-3.1107 0.0225,-0.5156 0.0086,-1.1262 -0.0961,-1.639 -0.0376,-0.1844 -0.0659,-0.3018 -0.2571,-0.3451 -0.2291,-0.0519 -0.4919,-0.0142 -0.7227,-0.0091 -1.3156,0.0292 -2.5341,-0.4086 -3.5469,-1.3148 -1.0276,-0.9195 -1.9251,-2.4864 -1.3252,-3.8172 0.7405,-1.6427 2.657,-2.2099 4.274,-2.5884 -0.9892,-2.0518 -1.3443,-4.3742 -0.5155,-6.4525 0.917,-2.2993 2.7294,-4.0802 3.7969,-6.3019 0.2782,-0.579 0.5423,-1.1903 0.5324,-1.8587 -0.0041,-0.2793 -0.0264,-0.6267 -0.1578,-0.8845 -0.1725,-0.3386 -0.5546,-0.412 -0.882,-0.505 -1.736,-0.4932 -6.5316,-0.3471 -8.3545,0.4875 z"
         fill="#191847"
         id="path6" />
      <path
         fill-rule="evenodd"
         clip-rule="evenodd"
         d="m 122.878,150.515 73.953,41.186 58.919,36.898 6.077,-3.508 -114.299,-88.807 z"
         fill="#ffffff"
         id="path8" />
      <path
         fill-rule="evenodd"
         clip-rule="evenodd"
         d="m 250.617,228.289 c 0.307,1.84 0.677,3.135 1.11,3.886 0.528,0.913 1.449,2.158 2.765,3.734 1.059,-0.612 10.58,-6.109 28.563,-16.491 -0.674,-2.882 -1.868,-3.96 -3.58,-3.232 -1.712,0.728 -3.142,1.318 -4.291,1.771 l -16.693,1.746 c -0.321,0.034 -0.555,0.322 -0.521,0.643 10e-4,0.005 10e-4,0.011 0.002,0.016 l 0.342,2.563 c -1.082,1.545 -2.085,2.585 -3.011,3.12 -0.752,0.434 -1.966,0.73 -3.642,0.887 v 0 c -0.643,0.061 -1.115,0.631 -1.055,1.274 0.003,0.028 0.007,0.056 0.011,0.083 z"
         fill="#6366f1"
         id="path10" />
      <path
         d="m 282.94,218.82 c -0.375,-0.23 -19.487,10.703 -28.996,16.198 -0.102,0.507 0.376,0.988 0.781,1.357 0.405,0.37 28.506,-15.673 28.775,-16.29 0.269,-0.617 -0.09,-0.978 -0.56,-1.265 z"
         fill="#4d4fb8"
         id="path12" />
      <path
         fill-rule="evenodd"
         clip-rule="evenodd"
         d="m 242.997,224.606 9.672,-10.311 c -13.995,-12.384 -30.04,-25.642 -48.134,-39.772 -18.093,-14.131 -36.365,-27.299 -54.817,-39.504 l -33.098,19.109 c 22.03,16.195 43.488,30.079 64.374,41.651 20.885,11.572 41.553,21.181 62.003,28.827 z"
         fill="url(#paint0_radial_592_4)"
         id="path14"
         style="fill:url(#paint0_radial_592_4)" />
      <path
         fill-rule="evenodd"
         clip-rule="evenodd"
         d="m 120.405,151.943 c 9.212,24.158 18.669,56.358 18.526,57.603 -0.095,0.83 -12.609,14.987 -37.541,42.47 l 4.406,4.601 c 33.451,-26.332 50.32,-41.518 50.607,-45.556 0.431,-6.058 -4.729,-48.971 -11.242,-73.411 z"
         fill="url(#paint1_linear_592_4)"
         id="path16"
         style="fill:url(#paint1_linear_592_4)" />
      <path
         fill-rule="evenodd"
         clip-rule="evenodd"
         d="m 109.472,241.174 7.295,7.296 c 28.674,-13.364 44.398,-24.748 47.172,-34.154 2.774,-9.405 -2.844,-35.33 -16.854,-77.776 l -31.561,18.221 c 12.931,33.916 19.478,51.695 19.641,53.338 0.163,1.643 -8.402,12.668 -25.693,33.075 z"
         fill="url(#paint2_radial_592_4)"
         id="path18"
         style="fill:url(#paint2_radial_592_4)" />
      <path
         fill-rule="evenodd"
         clip-rule="evenodd"
         d="m 101.6,248.919 c -1.7587,0.621 -2.97,1.211 -3.6342,1.768 -0.8078,0.678 -1.8736,1.802 -3.1976,3.371 0.7864,0.937 7.8528,9.359 21.2008,25.266 2.721,-1.165 3.575,-2.527 2.561,-4.087 -1.014,-1.56 -1.844,-2.866 -2.489,-3.919 l -4.619,-16.136 c -0.089,-0.31 -0.412,-0.49 -0.723,-0.401 -0.005,0.001 -0.01,0.003 -0.016,0.005 l -2.464,0.781 c -1.71,-0.797 -2.908,-1.604 -3.595,-2.423 -0.559,-0.665 -1.061,-1.809 -1.507,-3.432 v 0 c -0.171,-0.623 -0.815,-0.989 -1.438,-0.818 -0.027,0.007 -0.053,0.016 -0.079,0.025 z"
         fill="#6366f1"
         id="path20" />
      <path
         fill-rule="evenodd"
         clip-rule="evenodd"
         d="m 161.671,99.6795 9.706,-12.6732 c -1.215,-7.6273 -0.582,-12.0127 1.898,-13.156 1.526,-1.7385 1.988,8.3717 5.296,6.02 3.309,-2.3518 9.28,-12.8683 11.401,-12.2013 3.138,0.9868 3.803,7.9679 2.759,12.046 -1.95,7.6218 -4.777,11.1797 -12.757,17.7228 -4.172,3.4212 -8.143,8.3442 -11.914,14.7692 z"
         fill="url(#paint3_linear_592_4)"
         id="path22"
         style="fill:url(#paint3_linear_592_4)" />
      <g
         mask="url(#mask0_592_4)"
         id="g29">
        <path
           d="m 170.696,84.8048 c -0.406,0.261 -0.048,2.7901 0.181,4.022 0.399,0.2537 5.037,8.7322 8.624,9.6743 3.587,0.942 6.087,-2.8625 6.413,-3.6234 0.326,-0.7609 -9.566,-9.3119 -11.522,-10.399 -1.957,-1.087 -3.189,-1e-4 -3.696,0.3261 z"
           fill="#e1e1e1"
           id="path27" />
      </g>
      <path
         d="m 140.783,87.8207 -19.473,27.0963 9.446,2.409 15.154,-25.0464 c 6.425,-6.5172 9.03,-10.075 7.814,-10.6735 -1.823,-0.8978 -3.158,1.5129 -4.486,1.1061 -1.329,-0.4068 -1.541,-4.3884 -1.581,-8.1755 -0.04,-3.7871 -1.618,-2.5444 -2.365,-1.565 -1.962,4.041 -3.465,8.9906 -4.509,14.849 z"
         fill="#e1e1e1"
         id="path31" />
      <g
         mask="url(#mask1_592_4)"
         id="g38">
        <path
           d="m 149.401,89.8391 c 0.052,-0.3901 -5.762,-2.8487 -8.676,-4.0293 -0.341,-0.3574 -1.609,2.7459 -1.722,3.5908 -0.114,0.8449 6.808,3.0546 8.286,3.3471 1.479,0.2925 2.047,-2.4211 2.112,-2.9086 z"
           fill="#b9b9b9"
           id="path36" />
      </g>
      <path
         fill-rule="evenodd"
         clip-rule="evenodd"
         d="m 120.508,106.958 c 6.119,-3.62 13.579,-9.6607 19.129,-20.2793 l 7.87,5.686 c -2.581,9.4853 -8.233,19.3183 -15.782,23.3993 -5.95,3.216 -13.031,-2.139 -11.217,-8.806 z"
         fill="#e1e1e1"
         id="path40" />
      <path
         fill-rule="evenodd"
         clip-rule="evenodd"
         d="m 135.902,114.475 c 7.478,-2.144 17.329,-10.394 29.554,-24.7521 8.374,5.6919 13.388,10.3021 15.041,13.8301 -9.218,14.515 -18.756,24.12 -27.958,29.704 3.489,5.359 5.854,11.01 6.368,17.123 1.059,12.569 -31.447,19.13 -39.559,26.216 -16.478,-15.305 -9.763,-29.267 -16.63,-41.182 -7.5209,-13.049 -8.639,-39.1709 -7.0982,-40.0605 l 14.0522,-8.1127 c 6.526,9.5133 16.766,18.2382 26.23,27.2342 z"
         fill="url(#paint5_linear_592_4)"
         id="path42"
         style="fill:url(#paint5_linear_592_4)" />
      <path
         d="m 181,106.186 c 0,-1.2 -12.333,-11.4998 -18.5,-16.4998 0,-1.5 1.5,-7 3.5,-7 2,0 20.5,17 21,17.4998 0.5,0.5 -6,7.5 -6,6 z"
         fill="url(#paint6_linear_592_4)"
         id="path44"
         style="fill:url(#paint6_linear_592_4)" />
      <path
         d="m 147.829,96.4647 c -0.112,-0.5969 -7.497,-4.5159 -11.176,-6.4008 -0.14,-0.7462 0.128,-3.6286 1.17,-3.824 1.042,-0.1953 12.265,6.4543 12.572,6.6541 0.307,0.1999 -2.426,4.3169 -2.566,3.5707 z"
         fill="#e1e1e1"
         id="path46" />
      <rect
         x="89.705597"
         y="168.802"
         width="10.2806"
         height="4.2745099"
         rx="2"
         transform="rotate(-5.51925,89.7056,168.802)"
         fill="#e1e1e1"
         id="rect48" />
      <path
         d="m 76.2242,98.9384 c 1.8059,-0.6707 3.4229,1.3486 2.3738,2.9646 l -6.2761,9.664 c -0.3482,0.537 -0.9319,0.874 -1.5704,0.908 l -1.2551,0.067 c -1.1029,0.06 -2.045,-0.787 -2.1041,-1.89 l -0.3642,-6.799 c -0.0468,-0.874 0.4802,-1.677 1.3007,-1.982 z"
         fill="#e1e1e1"
         id="path50" />
      <path
         d="m 114.829,143.58 c 5.483,5.483 24.644,-4.382 28.973,-6.708 -4.845,4.922 -27.611,16.198 -30.815,12.817 -3.484,-3.678 -8.998,-29.336 -8.417,-26.82 0.581,2.517 4.21,14.662 10.259,20.711 z"
         fill="#e1e1e1"
         id="path52" />
      <path
         d="m 142.203,163.203 c 0.434,-0.353 0.831,-0.661 1.169,-0.912 -0.145,0.198 -0.557,0.512 -1.169,0.912 -2.349,1.911 -5.775,5.138 -6.696,7.687 -1.363,3.775 -10.067,9.438 -10.486,9.018 -0.419,-0.419 -3.46,-5.977 -2.202,-6.501 1.1,-0.459 15.114,-7.414 19.384,-10.204 z"
         fill="#e1e1e1"
         id="path54" />
      <path
         d="m 154.085,158.394 c -0.214,1.215 4.456,16.669 6.838,25.512 0.398,1.484 7.681,4.377 6.609,3.93 -1.071,-0.446 -13.179,-30.96 -13.447,-29.442 z"
         fill="#e1e1e1"
         id="path56" />
      <path
         d="m 64.231,118.71 c 1.367,-3.281 7.1077,-4.269 10.0633,-4.926 3.2599,-0.724 8.4371,-0.815 9.5307,0.916 1.0936,1.732 10.116,49.669 9.3869,50.489 -0.7291,0.82 -18.1358,2.916 -20.3231,1.549 C 70.7016,165.371 62.864,121.991 64.231,118.71 Z"
         fill="#e1e1e1"
         id="path58" />
      <path
         d="m 70.5748,103.315 c 1.8466,-4.4318 9.6012,-5.7664 13.5937,-6.6536 4.4035,-0.9787 11.2397,-2.9572 12.717,-0.6181 1.4773,2.339 13.8215,68.9477 12.8375,70.0557 -0.985,1.108 -24.4985,3.94 -27.4531,2.093 -2.9545,-1.847 -13.5417,-60.445 -11.6951,-64.877 z"
         fill="#f5f5f5"
         id="path60" />
      <g
         mask="url(#mask2_592_4)"
         id="g67">
        <path
           d="m 70.1516,133.356 c -0.0461,-0.23 -3.1343,-17.744 -3.8257,-18.251"
           stroke="#6366f1"
           stroke-width="3"
           id="path65" />
      </g>
      <path
         d="m 86.554,161.419 c -1.0755,-0.409 -5.4415,-24.241 -7.49,-36.105 -0.3842,-11.587 14.4678,-11.843 16.4523,-3.393 0.2777,1.183 8.1937,37.066 8.0017,37.962 -0.192,0.896 -15.6197,2.049 -16.964,1.536 z"
         fill="#ffffff"
         id="path69" />
      <path
         d="m 84.5382,158.589 c -1.267,-0.482 -6.4105,-28.557 -8.8238,-42.535 -0.4526,-13.65 17.0442,-13.952 19.3821,-3.997 0.3272,1.393 9.6535,43.667 9.4275,44.723 -0.227,1.055 -18.4021,2.413 -19.9858,1.809 z"
         fill="url(#paint7_linear_592_4)"
         id="path71"
         style="fill:url(#paint7_linear_592_4)" />
      <path
         d="m 84.8813,160.256 c -0.861,-0.795 -0.8003,-1.711 -0.6623,-2.07 1.4902,-2.07 19.621,-3.394 20.366,-2.732 0.745,0.662 0.165,1.821 0,2.732 -0.166,0.911 -18.6274,3.063 -19.7037,2.07 z"
         fill="#e1e1e1"
         id="path73" />
      <path
         d="m 137.099,127.746 c 4.824,5.72 7.982,7.147 9.441,7.089 -3.944,4.17 -23.087,12.194 -26.048,8.483 -2.667,-3.341 -9.785,-21.011 -11.723,-24.912 -0.287,-0.182 -0.455,-0.372 -0.483,-0.572 -0.057,-0.399 0.124,-0.149 0.483,0.572 3.371,2.147 23.247,3.313 28.33,9.34 z"
         fill="#ffffff"
         id="path75" />
      <circle
         cx="90.116699"
         cy="61.999599"
         r="34"
         fill="url(#paint8_linear_592_4)"
         id="circle77"
         style="fill:url(#paint8_linear_592_4)" />
      <g
         mask="url(#mask3_592_4)"
         id="g84">
        <path
           d="m 118.343,80.1617 c 2.219,-1.6607 -7.248,11.3631 -11.583,14.7377 0,0.6982 -18.4143,7.7676 -21.207,6.8946 -2.7928,-0.873 -0.6982,-0.786 -1.0473,-3.3165 -0.3491,-2.5309 16.0583,-9.5128 17.8913,-10.4728 1.832,-0.96 9.795,-3.2397 15.946,-7.843 z"
           fill="#feffff"
           id="path82" />
      </g>
      <path
         d="M 66.7738,47.7272 C 90.1438,27.1814 110.714,44.3409 109.578,42.4871 104.47,34.1451 94.8367,30.8338 88.1104,31.592 78.5041,32.675 70.0096,37.0662 66.7738,47.7272 Z"
         fill="#242635"
         id="path86" />
      <path
         d="m 118.833,57.9557 c -0.417,-1.8422 -2.203,-5.4872 -3.053,-6.7968 2.741,0.1377 3.29,1.938 3.677,2.4732 0.387,0.5352 -0.206,6.1659 -0.624,4.3236 z"
         fill="#242635"
         id="path88" />
      <circle
         cx="113.479"
         cy="108.703"
         r="7.33816"
         fill="#6366f1"
         id="circle90" />
      <path
         d="m 117.983,169.716 c -1.23,-2.013 -9.841,-14.762 -10.624,-15.881 0.585,8.484 6.338,19.48 9.869,20.439 1.079,0.293 1.985,-2.545 0.755,-4.558 z"
         fill="#e1e1e1"
         id="path92" />
    </g>
    <path
       d="M 604.169,328.175 C 611.484,422.382 221,450.824 221,189.686 221,-118.814 125.5,-47.8139 0.5,-38.3139"
       stroke="url(#paint0_linear_483_220)"
       stroke-width="5"
       id="path2-7"
       clip-path="url(#clipPath1033)"
       style="stroke:url(#paint0_linear_483_220);stroke-width:7.86429;stroke-miterlimit:4;stroke-dasharray:none"
       transform="matrix(0.63578557,0,0,0.63578557,-288.51951,-36.171652)" />
  </g>
</svg>
