<svg id="visual" viewBox="0 0 1920 942" width="1920" height="942" xmlns="http://www.w3.org/2000/svg" xmlns:xlink="http://www.w3.org/1999/xlink" version="1.1">
  <rect x="0" y="0" width="1920" height="942" fill="none"></rect>
  <defs>
    <linearGradient id="grad1_0" x1="50.9%" y1="100%" x2="100%" y2="0%">
      <stop offset="9.235668789808916%" stop-color="#ff6f61" stop-opacity="1"></stop>
      <stop offset="90.76433121019109%" stop-color="#ff6f61" stop-opacity="1"></stop>
    </linearGradient>
  </defs>
  <defs>
    <linearGradient id="grad1_1" x1="50.9%" y1="100%" x2="100%" y2="0%">
      <stop offset="9.235668789808916%" stop-color="#ff6f61" stop-opacity="1"></stop>
      <stop offset="90.76433121019109%" stop-color="#de5b6b" stop-opacity="1"></stop>
    </linearGradient>
  </defs>
  <defs>
    <linearGradient id="grad1_2" x1="50.9%" y1="100%" x2="100%" y2="0%">
      <stop offset="9.235668789808916%" stop-color="#b84c6e" stop-opacity="1"></stop>
      <stop offset="90.76433121019109%" stop-color="#de5b6b" stop-opacity="1"></stop>
    </linearGradient>
  </defs>
  <defs>
    <linearGradient id="grad1_3" x1="50.9%" y1="100%" x2="100%" y2="0%">
      <stop offset="9.235668789808916%" stop-color="#b84c6e" stop-opacity="1"></stop>
      <stop offset="90.76433121019109%" stop-color="#904269" stop-opacity="1"></stop>
    </linearGradient>
  </defs>
  <defs>
    <linearGradient id="grad1_4" x1="50.9%" y1="100%" x2="100%" y2="0%">
      <stop offset="9.235668789808916%" stop-color="#68395d" stop-opacity="1"></stop>
      <stop offset="90.76433121019109%" stop-color="#904269" stop-opacity="1"></stop>
    </linearGradient>
  </defs>
  <defs>
    <linearGradient id="grad1_5" x1="50.9%" y1="100%" x2="100%" y2="0%">
      <stop offset="9.235668789808916%" stop-color="#68395d" stop-opacity="1"></stop>
      <stop offset="90.76433121019109%" stop-color="#442e4a" stop-opacity="1"></stop>
    </linearGradient>
  </defs>
  <defs>
    <linearGradient id="grad1_6" x1="50.9%" y1="100%" x2="100%" y2="0%">
      <stop offset="9.235668789808916%" stop-color="#272132" stop-opacity="1"></stop>
      <stop offset="90.76433121019109%" stop-color="#442e4a" stop-opacity="1"></stop>
    </linearGradient>
  </defs>
  <defs>
    <linearGradient id="grad1_7" x1="50.9%" y1="100%" x2="100%" y2="0%">
      <stop offset="9.235668789808916%" stop-color="#272132" stop-opacity="1"></stop>
      <stop offset="90.76433121019109%" stop-color="#121217" stop-opacity="1"></stop>
    </linearGradient>
  </defs>
  <defs>
    <linearGradient id="grad2_0" x1="0%" y1="100%" x2="49.1%" y2="0%">
      <stop offset="9.235668789808916%" stop-color="#ff6f61" stop-opacity="1"></stop>
      <stop offset="90.76433121019109%" stop-color="#ff6f61" stop-opacity="1"></stop>
    </linearGradient>
  </defs>
  <defs>
    <linearGradient id="grad2_1" x1="0%" y1="100%" x2="49.1%" y2="0%">
      <stop offset="9.235668789808916%" stop-color="#de5b6b" stop-opacity="1"></stop>
      <stop offset="90.76433121019109%" stop-color="#ff6f61" stop-opacity="1"></stop>
    </linearGradient>
  </defs>
  <defs>
    <linearGradient id="grad2_2" x1="0%" y1="100%" x2="49.1%" y2="0%">
      <stop offset="9.235668789808916%" stop-color="#de5b6b" stop-opacity="1"></stop>
      <stop offset="90.76433121019109%" stop-color="#b84c6e" stop-opacity="1"></stop>
    </linearGradient>
  </defs>
  <defs>
    <linearGradient id="grad2_3" x1="0%" y1="100%" x2="49.1%" y2="0%">
      <stop offset="9.235668789808916%" stop-color="#904269" stop-opacity="1"></stop>
      <stop offset="90.76433121019109%" stop-color="#b84c6e" stop-opacity="1"></stop>
    </linearGradient>
  </defs>
  <defs>
    <linearGradient id="grad2_4" x1="0%" y1="100%" x2="49.1%" y2="0%">
      <stop offset="9.235668789808916%" stop-color="#904269" stop-opacity="1"></stop>
      <stop offset="90.76433121019109%" stop-color="#68395d" stop-opacity="1"></stop>
    </linearGradient>
  </defs>
  <defs>
    <linearGradient id="grad2_5" x1="0%" y1="100%" x2="49.1%" y2="0%">
      <stop offset="9.235668789808916%" stop-color="#442e4a" stop-opacity="1"></stop>
      <stop offset="90.76433121019109%" stop-color="#68395d" stop-opacity="1"></stop>
    </linearGradient>
  </defs>
  <defs>
    <linearGradient id="grad2_6" x1="0%" y1="100%" x2="49.1%" y2="0%">
      <stop offset="9.235668789808916%" stop-color="#442e4a" stop-opacity="1"></stop>
      <stop offset="90.76433121019109%" stop-color="#272132" stop-opacity="1"></stop>
    </linearGradient>
  </defs>
  <defs>
    <linearGradient id="grad2_7" x1="0%" y1="100%" x2="49.1%" y2="0%">
      <stop offset="9.235668789808916%" stop-color="#121217" stop-opacity="1"></stop>
      <stop offset="90.76433121019109%" stop-color="#272132" stop-opacity="1"></stop>
    </linearGradient>
  </defs>
  <g transform="translate(1920, 942)">
    <path d="M-321 0C-317 -27.9 -313.1 -55.8 -305.2 -81.8C-297.4 -107.8 -285.6 -131.8 -274.5 -158.5C-263.5 -185.2 -253.1 -214.5 -233.1 -233.1C-213.2 -251.8 -183.7 -259.9 -158 -273.7C-132.3 -287.5 -110.3 -307 -84.6 -315.9C-58.9 -324.7 -29.5 -322.9 0 -321L0 0Z" fill="#1b1a24"></path>
    <path d="M-280.9 0C-277.4 -24.4 -274 -48.8 -267.1 -71.6C-260.2 -94.3 -249.9 -115.3 -240.2 -138.7C-230.5 -162 -221.4 -187.7 -204 -204C-186.5 -220.3 -160.8 -227.4 -138.3 -239.5C-115.7 -251.5 -96.5 -268.6 -74.1 -276.4C-51.6 -284.1 -25.8 -282.5 0 -280.9L0 0Z" fill="#34283e"></path>
    <path d="M-240.7 0C-237.8 -20.9 -234.8 -41.9 -228.9 -61.3C-223 -80.8 -214.2 -98.9 -205.9 -118.9C-197.6 -138.9 -189.8 -160.8 -174.8 -174.8C-159.9 -188.9 -137.8 -194.9 -118.5 -205.2C-99.2 -215.6 -82.8 -230.3 -63.5 -236.9C-44.2 -243.5 -22.1 -242.1 0 -240.7L0 0Z" fill="#553354"></path>
    <path d="M-200.6 0C-198.2 -17.4 -195.7 -34.9 -190.8 -51.1C-185.9 -67.4 -178.5 -82.4 -171.6 -99.1C-164.7 -115.7 -158.2 -134 -145.7 -145.7C-133.2 -157.4 -114.8 -162.4 -98.8 -171C-82.7 -179.7 -69 -191.9 -52.9 -197.4C-36.8 -202.9 -18.4 -201.8 0 -200.6L0 0Z" fill="#7b3d64"></path>
    <path d="M-160.5 0C-158.5 -14 -156.5 -27.9 -152.6 -40.9C-148.7 -53.9 -142.8 -65.9 -137.3 -79.3C-131.7 -92.6 -126.5 -107.2 -116.6 -116.6C-106.6 -125.9 -91.9 -129.9 -79 -136.8C-66.1 -143.7 -55.2 -153.5 -42.3 -157.9C-29.5 -162.4 -14.7 -161.4 0 -160.5L0 0Z" fill="#a4476d"></path>
    <path d="M-120.4 0C-118.9 -10.5 -117.4 -20.9 -114.5 -30.7C-111.5 -40.4 -107.1 -49.4 -102.9 -59.4C-98.8 -69.4 -94.9 -80.4 -87.4 -87.4C-79.9 -94.4 -68.9 -97.4 -59.3 -102.6C-49.6 -107.8 -41.4 -115.1 -31.7 -118.4C-22.1 -121.8 -11 -121.1 0 -120.4L0 0Z" fill="#cc536d"></path>
    <path d="M-80.2 0C-79.3 -7 -78.3 -14 -76.3 -20.4C-74.3 -26.9 -71.4 -33 -68.6 -39.6C-65.9 -46.3 -63.3 -53.6 -58.3 -58.3C-53.3 -63 -45.9 -65 -39.5 -68.4C-33.1 -71.9 -27.6 -76.8 -21.2 -79C-14.7 -81.2 -7.4 -80.7 0 -80.2L0 0Z" fill="#f06467"></path>
    <path d="M-40.1 0C-39.6 -3.5 -39.1 -7 -38.2 -10.2C-37.2 -13.5 -35.7 -16.5 -34.3 -19.8C-32.9 -23.1 -31.6 -26.8 -29.1 -29.1C-26.6 -31.5 -23 -32.5 -19.8 -34.2C-16.5 -35.9 -13.8 -38.4 -10.6 -39.5C-7.4 -40.6 -3.7 -40.4 0 -40.1L0 0Z" fill="#ff6f61"></path>
  </g>
  <g transform="translate(0, 0)">
    <path d="M329.7 0C324.8 28.1 319.9 56.2 313 83.9C306 111.5 296.9 138.6 283.2 163.5C269.5 188.4 251.1 211 229.8 229.8C208.6 248.6 184.4 263.6 159.5 276.3C134.6 288.9 108.8 299.1 82 306.2C55.3 313.3 27.7 317.1 0 321L0 0Z" fill="#1b1a24"></path>
    <path d="M288.5 0C284.2 24.6 279.9 49.2 273.8 73.4C267.7 97.5 259.8 121.3 247.8 143.1C235.8 164.8 219.7 184.6 201.1 201.1C182.5 217.5 161.4 230.7 139.6 241.7C117.7 252.8 95.2 261.7 71.8 267.9C48.4 274.1 24.2 277.5 0 280.9L0 0Z" fill="#34283e"></path>
    <path d="M247.3 0C243.6 21.1 240 42.2 234.7 62.9C229.5 83.6 222.7 104 212.4 122.6C202.1 141.3 188.3 158.2 172.4 172.4C156.4 186.5 138.3 197.7 119.6 207.2C100.9 216.7 81.6 224.4 61.5 229.6C41.5 234.9 20.7 237.8 0 240.8L0 0Z" fill="#553354"></path>
    <path d="M206.1 0C203 17.6 200 35.1 195.6 52.4C191.2 69.7 185.6 86.6 177 102.2C168.4 117.7 156.9 131.9 143.6 143.6C130.3 155.4 115.3 164.8 99.7 172.7C84.1 180.6 68 187 51.3 191.4C34.6 195.8 17.3 198.2 0 200.6L0 0Z" fill="#7b3d64"></path>
    <path d="M164.8 0C162.4 14.1 160 28.1 156.5 41.9C153 55.7 148.5 69.3 141.6 81.7C134.7 94.2 125.5 105.5 114.9 114.9C104.3 124.3 92.2 131.8 79.8 138.1C67.3 144.4 54.4 149.6 41 153.1C27.7 156.6 13.8 158.6 0 160.5L0 0Z" fill="#a4476d"></path>
    <path d="M123.6 0C121.8 10.5 120 21.1 117.4 31.4C114.7 41.8 111.3 52 106.2 61.3C101 70.6 94.1 79.1 86.2 86.2C78.2 93.2 69.2 98.9 59.8 103.6C50.5 108.3 40.8 112.2 30.8 114.8C20.7 117.5 10.4 118.9 0 120.4L0 0Z" fill="#cc536d"></path>
    <path d="M82.4 0C81.2 7 80 14.1 78.2 21C76.5 27.9 74.2 34.7 70.8 40.9C67.4 47.1 62.8 52.7 57.5 57.5C52.1 62.2 46.1 65.9 39.9 69.1C33.6 72.2 27.2 74.8 20.5 76.5C13.8 78.3 6.9 79.3 0 80.3L0 0Z" fill="#f06467"></path>
    <path d="M41.2 0C40.6 3.5 40 7 39.1 10.5C38.2 13.9 37.1 17.3 35.4 20.4C33.7 23.5 31.4 26.4 28.7 28.7C26.1 31.1 23.1 33 19.9 34.5C16.8 36.1 13.6 37.4 10.3 38.3C6.9 39.2 3.5 39.6 0 40.1L0 0Z" fill="#ff6f61"></path>
  </g>
</svg>