<svg viewBox="0 0 900 156.55521" width="900" height="156.55521" xmlns="http://www.w3.org/2000/svg">
  <path d="m 0,70.555203 13.7,-9.3 c 13.6,-9.4 41,-28 68.3,-38.9 27.3,-10.8 54.7,-13.8000001 81.8,-5.6 27.2,8.1 54.2,27.5 81.4,25.5 27.1,-2 54.5,-25.4 81.8,-35.7000001 27.3,-10.3 54.7,-7.7 82,2.5 27.3,10.2000001 54.7,27.8000001 82,34.2000001 27.3,6.3 54.7,1.3 82,-1 27.3,-2.4 54.7,-2 81.8,5.6 27.2,7.7 54.2,22.7 81.4,24.5 27.1,1.9 54.5,-9.5 81.8,-9.8 27.3,-0.3 54.7,10.3 68.3,15.7 l 13.7,5.3 V 156.5552 h -13.7 c -13.6,0 -41,0 -68.3,0 -27.3,0 -54.7,0 -81.8,0 -27.2,0 -54.2,0 -81.4,0 -27.1,0 -54.5,0 -81.8,0 -27.3,0 -54.7,0 -82,0 -27.3,0 -54.7,0 -82,0 -27.3,0 -54.7,0 -82,0 -27.3,0 -54.7,0 -81.8,0 -27.2,0 -54.2,0 -81.4,0 -27.1,0 -54.5,0 -81.8,0 -27.3,0 -54.7,0 -68.3,0 H 0 Z" fill="#12121c" />
</svg>